<?xml version="1.0" encoding="UTF-8" standalone="no"?>
<!-- Svg Vector Icons : http://www.onlinewebfonts.com/icon -->

<svg
   xmlns:dc="http://purl.org/dc/elements/1.1/"
   xmlns:cc="http://creativecommons.org/ns#"
   xmlns:rdf="http://www.w3.org/1999/02/22-rdf-syntax-ns#"
   xmlns:svg="http://www.w3.org/2000/svg"
   xmlns="http://www.w3.org/2000/svg"
   xmlns:sodipodi="http://sodipodi.sourceforge.net/DTD/sodipodi-0.dtd"
   xmlns:inkscape="http://www.inkscape.org/namespaces/inkscape"
   version="1.1"
   x="0px"
   y="0px"
   viewBox="0 0 32 32"
   enable-background="new 0 0 1000 1000"
   xml:space="preserve"
   id="svg12"
   sodipodi:docname="wm_clipboard_code.svg"
   inkscape:version="0.92.4 (5da689c313, 2019-01-14)"
   width="32"
   height="32"><defs
   id="defs16" /><sodipodi:namedview
   pagecolor="#ffffff"
   bordercolor="#666666"
   borderopacity="1"
   objecttolerance="10"
   gridtolerance="10"
   guidetolerance="10"
   inkscape:pageopacity="0"
   inkscape:pageshadow="2"
   inkscape:window-width="2560"
   inkscape:window-height="1417"
   id="namedview14"
   showgrid="false"
   inkscape:zoom="46.492001"
   inkscape:cx="8.4258196"
   inkscape:cy="16.696094"
   inkscape:window-x="-8"
   inkscape:window-y="-8"
   inkscape:window-maximized="1"
   inkscape:current-layer="svg12"
   inkscape:pagecheckerboard="true"
   borderlayer="false"
   inkscape:showpageshadow="true"
   showborder="true" />
<metadata
   id="metadata2"> Svg Vector Icons : http://www.onlinewebfonts.com/icon <rdf:RDF><cc:Work
     rdf:about=""><dc:format>image/svg+xml</dc:format><dc:type
       rdf:resource="http://purl.org/dc/dcmitype/StillImage" /><dc:title></dc:title></cc:Work></rdf:RDF></metadata>



<g
   id="g829"
   style=""><g
     id="g823"
     inkscape:label="Inside"
     style=""><path
       inkscape:label="e"
       style="font-style:normal;font-weight:normal;font-size:10.66666698px;line-height:1.25;font-family:sans-serif;letter-spacing:0px;word-spacing:0px;fill:none;fill-opacity:1;"
       sodipodi:nodetypes="ccscc"
       inkscape:connector-curvature="0"
       id="path2745"
       d="m 26.840189,24.924686 c -2.465139,1.114802 -4.328269,-0.145292 -4.456867,-2.241216 -0.0995,-2.188569 0.778163,-3.309211 2.139834,-3.297747 1.616085,0.01361 2.059281,1.59911 2.152002,3.300929 h -4.286459" /><path
       inkscape:label="d"
       sodipodi:nodetypes="ccccc"
       style="font-style:normal;font-weight:normal;font-size:10.66666698px;line-height:1.25;font-family:sans-serif;letter-spacing:0px;word-spacing:0px;fill:none;fill-opacity:1;"
       inkscape:connector-curvature="0"
       id="path2743"
       d="m 20.796445,19.436825 -0.04302,6.400676 -0.04302,-0.975029 c -5.254811,2.24428 -4.008575,-7.039406 0.08604,-5.425647 l -0.04302,-7.855087" /><path
       inkscape:connector-curvature="0"
       id="path826"
       style="display:inline;fill:none;"
       d="m 13.513374,19.406265 c -1.254791,-3e-6 -2.272017,1.327824 -2.27194,2.965738 3.8e-5,1.637817 1.01723,2.965505 2.27194,2.965498 1.254757,7e-6 2.271949,-1.327681 2.271983,-2.965498 4.2e-5,-1.637914 -1.01715,-2.965741 -2.271983,-2.965738 z"
       sodipodi:nodetypes="ccccc"
       inkscape:label="o" /><path
       inkscape:label="C"
       sodipodi:nodetypes="csc"
       d="M 10.009051,15.260073 C 9.8426613,11.465036 6.1515513,9.7851895 6.0094503,18.52354 c -0.141605,8.707833 3.933906,8.29364 3.846456,3.130861"
       style="display:inline;fill:none;"
       id="path2737"
       inkscape:connector-curvature="0" /></g><g
     id="g820"
     inkscape:label="Outside"
     style=""><path
       d="M 16.321724,1.0551764 C 15.063189,1.1024094 14.42895,1.879913 14.476183,2.8815017 l -3.014035,0.00898 -2.4910867,0.013412 v 2.7036485 2.7034081 h 7.2434947 7.243488 V 5.6075377 2.9041285 l -2.485776,-0.013412 -2.937414,-0.00898 c 0,-0.9448017 -0.716779,-1.8265592 -1.71313,-1.8265601 z M 6.6441932,4.6490656 H 5.2447536 3.5116294 V 17.383535 30.118296 H 16.164341 28.950642 V 17.383829 4.6490656 h -1.9518 -1.350654"
       style="display:inline;fill:none;"
       id="path815"
       inkscape:connector-curvature="0"
       sodipodi:nodetypes="cccccccccccccccccccccccc"
       inkscape:label="Outside" /></g></g></svg>