<?xml version="1.0" encoding="UTF-8" standalone="no"?>
<!-- Svg Vector Icons : http://www.onlinewebfonts.com/icon -->

<svg
   xmlns:dc="http://purl.org/dc/elements/1.1/"
   xmlns:cc="http://creativecommons.org/ns#"
   xmlns:rdf="http://www.w3.org/1999/02/22-rdf-syntax-ns#"
   xmlns:svg="http://www.w3.org/2000/svg"
   xmlns="http://www.w3.org/2000/svg"
   xmlns:sodipodi="http://sodipodi.sourceforge.net/DTD/sodipodi-0.dtd"
   xmlns:inkscape="http://www.inkscape.org/namespaces/inkscape"
   version="1.1"
   x="0px"
   y="0px"
   viewBox="0 0 32 32"
   enable-background="new 0 0 1000 1000"
   xml:space="preserve"
   id="svg12"
   sodipodi:docname="wm_clipboard.svg"
   inkscape:version="0.92.4 (5da689c313, 2019-01-14)"
   width="32"
   height="32"><defs
   id="defs16" /><sodipodi:namedview
   pagecolor="#ffffff"
   bordercolor="#666666"
   borderopacity="1"
   objecttolerance="10"
   gridtolerance="10"
   guidetolerance="10"
   inkscape:pageopacity="0"
   inkscape:pageshadow="2"
   inkscape:window-width="2560"
   inkscape:window-height="1417"
   id="namedview14"
   showgrid="false"
   inkscape:zoom="21.360282"
   inkscape:cx="11.105774"
   inkscape:cy="17.418297"
   inkscape:window-x="-8"
   inkscape:window-y="-8"
   inkscape:window-maximized="1"
   inkscape:current-layer="svg12"
   inkscape:pagecheckerboard="true"
   borderlayer="false"
   inkscape:showpageshadow="true"
   showborder="true" />
<metadata
   id="metadata2"> Svg Vector Icons : http://www.onlinewebfonts.com/icon <rdf:RDF><cc:Work
     rdf:about=""><dc:format>image/svg+xml</dc:format><dc:type
       rdf:resource="http://purl.org/dc/dcmitype/StillImage" /><dc:title></dc:title></cc:Work></rdf:RDF></metadata>



<g
   id="g829"
   style=""><g
     id="g823"
     style=""
     inkscape:label="Inside"><path
       inkscape:connector-curvature="0"
       id="path826"
       style="display:inline;fill:none;"
       d="m 23.887357,11.33141 2.125403,14.122158 m -4.18005,-9.933125 c -0.295125,-1e-6 -0.534375,0.355148 -0.534357,0.793232 9e-6,0.438062 0.239251,0.793173 0.534357,0.793171 0.295117,2e-6 0.534359,-0.355109 0.534367,-0.793171 1e-5,-0.438084 -0.239232,-0.793233 -0.534367,-0.793232 z m 0,4.91826 c -0.295125,-1e-6 -0.534375,0.355147 -0.534357,0.793233 9e-6,0.43806 0.239251,0.793171 0.534357,0.793169 0.295117,2e-6 0.534359,-0.355109 0.534367,-0.793169 1e-5,-0.438086 -0.239232,-0.793234 -0.534367,-0.793233 z m -2.058538,-5.437197 c -0.16639,-3.795037 -3.8575,-5.4748835 -3.999601,3.263467 -0.141605,8.707833 3.933906,8.29364 3.846456,3.130861"
       sodipodi:nodetypes="cccccccccccccsc"
       inkscape:label="Inside" /></g><g
     id="g820"
     style=""
     inkscape:label="Outside"><path
       d="M 16.321724,1.0551764 C 15.063189,1.1024094 14.42895,1.879913 14.476183,2.8815017 l -3.014035,0.00898 -2.4910867,0.013412 v 2.7036485 2.7034081 h 7.2434947 7.243488 V 5.6075377 2.9041285 l -2.485776,-0.013412 -2.937414,-0.00898 c 0,-0.9448017 -0.716779,-1.8265592 -1.71313,-1.8265601 z M 6.6441932,4.6490656 H 5.2447536 3.5116294 V 17.383535 30.118296 H 16.164341 28.950642 V 17.383829 4.6490656 h -1.9518 -1.350654"
       style="display:inline;fill:none;"
       id="path815"
       inkscape:connector-curvature="0"
       sodipodi:nodetypes="cccccccccccccccccccccccc"
       inkscape:label="Outside" /></g></g></svg>