<?xml version="1.0" encoding="UTF-8" standalone="no"?>
<!-- Svg Vector Icons : http://www.onlinewebfonts.com/icon -->

<svg
   xmlns:dc="http://purl.org/dc/elements/1.1/"
   xmlns:cc="http://creativecommons.org/ns#"
   xmlns:rdf="http://www.w3.org/1999/02/22-rdf-syntax-ns#"
   xmlns:svg="http://www.w3.org/2000/svg"
   xmlns="http://www.w3.org/2000/svg"
   xmlns:sodipodi="http://sodipodi.sourceforge.net/DTD/sodipodi-0.dtd"
   xmlns:inkscape="http://www.inkscape.org/namespaces/inkscape"
   version="1.1"
   x="0px"
   y="0px"
   viewBox="0 0 32 32"
   enable-background="new 0 0 1000 1000"
   xml:space="preserve"
   id="svg18"
   sodipodi:docname="wm_connection_facebook.svg"
   inkscape:version="0.92.4 (5da689c313, 2019-01-14)"
   width="32"
   height="32"><title
   id="title816">Facebook connection</title><defs
   id="defs22"><style
     id="style853"
     type="text/css">
   <![CDATA[
    .fil0 {fill:#1977F3;fill-rule:nonzero}
    .fil1 {fill:#FEFEFE;fill-rule:nonzero}
   ]]>
  </style></defs><sodipodi:namedview
   pagecolor="#ffffff"
   bordercolor="#666666"
   borderopacity="1"
   objecttolerance="10"
   gridtolerance="10"
   guidetolerance="10"
   inkscape:pageopacity="0"
   inkscape:pageshadow="2"
   inkscape:window-width="2560"
   inkscape:window-height="1417"
   id="namedview20"
   showgrid="false"
   inkscape:zoom="22.627417"
   inkscape:cx="24.825073"
   inkscape:cy="13.384005"
   inkscape:window-x="-8"
   inkscape:window-y="-8"
   inkscape:window-maximized="1"
   inkscape:current-layer="g1577" />
<metadata
   id="metadata2"> Svg Vector Icons : http://www.onlinewebfonts.com/icon <rdf:RDF><cc:Work
     rdf:about=""><dc:format>image/svg+xml</dc:format><dc:type
       rdf:resource="http://purl.org/dc/dcmitype/StillImage" /><dc:title>Facebook connection</dc:title></cc:Work></rdf:RDF></metadata>

<g
   id="g1577"
   inkscape:label="State1"><g
     id="g1593"
     inkscape:label="Outside"><path
       id="path883"
       d="M 30.000001,16.060838 C 30.000001,10.504811 25.522431,6 20,6 14.47757,6 10,10.504811 10,16.060838 10,21.082061 13.656307,25.244483 18.437633,26 v -7.030277 h -2.539728 v -2.908885 h 2.539728 v -2.217035 c 0,-2.521222 1.49346,-3.9148273 3.777246,-3.9148273 1.094079,0 2.238785,0.1966613 2.238785,0.1966613 v 2.475947 h -1.261425 c -1.24174,0 -1.62987,0.775326 -1.62987,1.571874 v 1.88738 h 2.773168 l -0.442975,2.908885 H 21.562369 V 26 c 4.781325,-0.754102 8.437632,-4.916526 8.437632,-9.939162 z"
       class="fil0"
       inkscape:connector-curvature="0"
       style="clip-rule:evenodd;display:inline;fill:#1977f3;fill-rule:nonzero;stroke:none;stroke-width:0.0011708;image-rendering:optimizeQuality;shape-rendering:geometricPrecision;text-rendering:geometricPrecision"
       inkscape:label="fb blue" /><path
       inkscape:label="fb white F"
       style="clip-rule:evenodd;display:inline;fill:#fefefe;fill-rule:nonzero;stroke:none;stroke-width:0.0011708;image-rendering:optimizeQuality;shape-rendering:geometricPrecision;text-rendering:geometricPrecision"
       inkscape:connector-curvature="0"
       class="fil1"
       d="m 23.891865,18.97949 0.442943,-2.921334 h -2.772972 v -1.895458 c 0,-0.798535 0.386697,-1.5786 1.629754,-1.5786 h 1.261337 v -2.486544 c 0,0 -1.144625,-0.1975044 -2.238627,-0.1975044 -2.283626,0 -3.776982,1.3981494 -3.776982,3.9315834 v 2.226523 h -2.539547 v 2.921334 h 2.539547 v 7.060367 c 0.509035,0.08099 1.030725,0.122192 1.562259,0.122192 0.531534,0 1.053224,-0.04264 1.562259,-0.122192 V 18.97949 Z"
       id="path860-7" /></g><g
     id="g1589"
     inkscape:label="Inside"><path
       id="path901"
       d="m 6.4405223,18.976696 1e-7,-3.657696 m -1.5193503,10.973 -0.00179,-3.658224 m 2.115533,-1.923687 v -1.47175 C 7.0349282,19.09384 6.9177705,18.976683 6.7732721,18.976696 H 6.4405223 6.1077726 L 5.8888974,18.976561 5.6700223,18.976425 H 4.3180224 4.099214 3.8804056 3.5476559 3.2149061 C 3.0704077,18.976412 2.95325,19.093838 2.9532632,19.238337 v 1.47175 c -0.042423,1.062562 0.5332612,1.843997 1.9661144,1.923689 1.2911855,-0.02272 1.9939091,-0.628137 2.1155375,-1.923687 z M 3.5476559,18.976321 3.5474642,15.319"
       inkscape:connector-curvature="0"
       style="fill:none"
       sodipodi:nodetypes="cccccccccccccccccccccc"
       inkscape:label="Plug out" /><path
       inkscape:label="Socket out"
       sodipodi:nodetypes="cccccccccc"
       style="fill:none"
       inkscape:connector-curvature="0"
       d="m 4.9211721,6.328 -0.00179,3.6576503 m 2.115533,1.9236867 v 1.47175 c 1.31e-5,0.144499 -0.1171446,0.261656 -0.261643,0.261643 -1.2097246,9.5e-5 -2.4717997,3.34e-4 -3.558366,2.71e-4 -0.1444984,1.3e-5 -0.2616561,-0.117413 -0.2616429,-0.261912 v -1.47175 c -0.042423,-1.062562 0.5332612,-1.843997 1.9661144,-1.9236887 1.2911855,0.02272 1.9939091,0.6281367 2.1155375,1.9236867 z"
       id="path1503" /></g></g><g
   id="g1571"
   inkscape:label="State0"><g
     id="g1585"
     inkscape:label="Outside"><path
       inkscape:label="fb blue"
       style="clip-rule:evenodd;display:inline;fill:#1977f3;fill-rule:nonzero;stroke:none;stroke-width:1;stroke-miterlimit:4;stroke-dasharray:none;stroke-opacity:1;image-rendering:optimizeQuality;shape-rendering:geometricPrecision;text-rendering:geometricPrecision"
       inkscape:connector-curvature="0"
       class="fil0"
       d="M 30,16.060838 C 30,10.50481 25.52243,6 20,6 14.477571,6 10,10.50481 10,16.060838 10,21.082059 13.656308,25.244481 18.437632,26 v -7.030277 h -2.539727 v -2.908885 h 2.539727 v -2.217035 c 0,-2.521223 1.493462,-3.914828 3.777247,-3.914828 1.094077,0 2.238785,0.196661 2.238785,0.196661 v 2.475948 h -1.261428 c -1.241736,0 -1.629869,0.775326 -1.629869,1.571874 v 1.88738 h 2.773169 l -0.442974,2.908885 H 21.562367 V 26 C 26.343694,25.245895 30,21.083474 30,16.060838 Z"
       id="path858" /><path
       sodipodi:nodetypes="cccssccsscccccsccc"
       inkscape:label="fb white F"
       style="clip-rule:evenodd;display:inline;fill:#fefefe;fill-rule:nonzero;stroke:none;stroke-width:1;stroke-linecap:butt;stroke-linejoin:miter;stroke-miterlimit:4;stroke-dasharray:none;stroke-opacity:1;image-rendering:optimizeQuality;shape-rendering:geometricPrecision;text-rendering:geometricPrecision"
       inkscape:connector-curvature="0"
       class="fil1"
       d="m 23.892398,18.957244 0.442942,-2.914048 h -2.772973 v -1.89073 c 0,-0.796543 0.386698,-1.574662 1.629754,-1.574662 h 1.261338 v -2.480343 c 0,0 -1.144625,-0.1970109 -2.238628,-0.1970109 -2.283625,0 -3.776981,1.3946609 -3.776981,3.9217759 v 2.22097 h -2.539547 v 2.914048 H 18.43785 V 26 c 0.509035,0.08079 1.026709,0.16205 1.558243,0.16205 0.531533,0 1.05724,-0.08269 1.566275,-0.16205 v -7.042756 z"
       id="path860" /></g><g
     id="g1581"
     inkscape:label="Inside"><path
       inkscape:label="Plug in"
       sodipodi:nodetypes="cccccccccc"
       style="display:inline;fill:none"
       inkscape:connector-curvature="0"
       d="m 4.9121986,23.291563 -0.00179,-3.657639 m 2.1155329,-1.923687 v -1.47175 c 1.31e-5,-0.144499 -0.1171446,-0.261656 -0.261643,-0.261643 -1.2097245,-9.5e-5 -2.4717996,-3.33e-4 -3.558366,-2.71e-4 -0.1444984,-1.3e-5 -0.2616561,0.117413 -0.2616429,0.261912 v 1.47175 c -0.042423,1.062562 0.5332612,1.843997 1.9661145,1.923689 1.2911854,-0.02272 1.993909,-0.628137 2.1155374,-1.923687 z"
       id="path1503-1" /><path
       id="path1520"
       d="m 4.9199611,8.7084374 -0.00179,3.6576396 m 2.1155329,1.923687 v 1.47175 c 1.31e-5,0.144499 -0.1171446,0.261656 -0.261643,0.261643 -1.2097245,9.5e-5 -2.4717996,3.33e-4 -3.558366,2.71e-4 -0.1444984,1.3e-5 -0.2616561,-0.117413 -0.2616429,-0.261912 v -1.47175 c -0.042423,-1.062562 0.5332612,-1.843997 1.9661145,-1.923689 1.2911854,0.02272 1.993909,0.628137 2.1155374,1.923687 z"
       inkscape:connector-curvature="0"
       style="display:inline;fill:none"
       sodipodi:nodetypes="cccccccccc"
       inkscape:label="Socket in" /></g></g></svg>