<?xml version="1.0" encoding="UTF-8" standalone="no"?>
<!-- Svg Vector Icons : http://www.onlinewebfonts.com/icon -->

<svg
   xmlns:dc="http://purl.org/dc/elements/1.1/"
   xmlns:cc="http://creativecommons.org/ns#"
   xmlns:rdf="http://www.w3.org/1999/02/22-rdf-syntax-ns#"
   xmlns:svg="http://www.w3.org/2000/svg"
   xmlns="http://www.w3.org/2000/svg"
   xmlns:sodipodi="http://sodipodi.sourceforge.net/DTD/sodipodi-0.dtd"
   xmlns:inkscape="http://www.inkscape.org/namespaces/inkscape"
   version="1.1"
   x="0px"
   y="0px"
   viewBox="0 0 32 32"
   enable-background="new 0 0 1000 1000"
   xml:space="preserve"
   id="svg18"
   sodipodi:docname="wm_display_lock.svg"
   inkscape:version="0.92.4 (5da689c313, 2019-01-14)"
   width="32"
   height="32"><title
   id="title816">Display lock</title><defs
   id="defs22" /><sodipodi:namedview
   pagecolor="#ffffff"
   bordercolor="#666666"
   borderopacity="1"
   objecttolerance="10"
   gridtolerance="10"
   guidetolerance="10"
   inkscape:pageopacity="0"
   inkscape:pageshadow="2"
   inkscape:window-width="2560"
   inkscape:window-height="1417"
   id="namedview20"
   showgrid="false"
   inkscape:zoom="22.315562"
   inkscape:cx="15.644041"
   inkscape:cy="13.828744"
   inkscape:window-x="-8"
   inkscape:window-y="-8"
   inkscape:window-maximized="1"
   inkscape:current-layer="svg18" />
<metadata
   id="metadata2"> Svg Vector Icons : http://www.onlinewebfonts.com/icon <rdf:RDF><cc:Work
     rdf:about=""><dc:format>image/svg+xml</dc:format><dc:type
       rdf:resource="http://purl.org/dc/dcmitype/StillImage" /><dc:title>Display lock</dc:title></cc:Work></rdf:RDF></metadata>

<g
   id="g942"
   inkscape:label="State1"
   style=""><g
     id="g950"
     inkscape:label="Outside"
     style=""><path
       sodipodi:nodetypes="ccccccccccscccccccccccccccsccccccccc"
       inkscape:label="Monitor"
       inkscape:connector-curvature="0"
       d="M 11.607962,23.9984 H 20.39178 M 1.4012737,20.23859 H 15.99839 M 16.00029,2.95233 H 1.8167711 L 1.5993486,3.14548 1.3876005,3.33832 1.3705735,13.40191 c -0.011344,10.0067 -0.011344,10.05765 0.1030374,10.24487 0.2230969,0.36318 0.022994,0.35162 5.318794,0.35162 h 4.8155541 l -0.02299,1.00986 c -0.01703,0.96423 -0.023,1.01548 -0.177404,1.32178 -0.366154,0.74325 -0.943757,1.14582 -1.8358471,1.27647 -0.457543,0.0682 -0.537585,0.0965 -0.674966,0.24972 -0.303137,0.32912 -0.280142,0.73169 0.04569,1.01548 l 0.200101,0.17596 h 6.8571781 6.857477 l 0.2001,-0.17596 c 0.325835,-0.28379 0.348832,-0.68636 0.04569,-1.01548 -0.137382,-0.15315 -0.217422,-0.18159 -0.674967,-0.24972 -0.89209,-0.13035 -1.469694,-0.53322 -1.835847,-1.27647 -0.154407,-0.3063 -0.160082,-0.35725 -0.177404,-1.32741 L 20.39178,23.9984 h 4.8278 c 4.569462,0 4.832579,-0.005 5.02133,-0.10221 0.10871,-0.0568 0.245794,-0.19284 0.303137,-0.30067 0.09169,-0.1816 0.09736,-0.76014 0.08572,-10.22236 L 30.612737,3.33802 30.401287,3.14518 30.183865,2.95233 H 16.000318 l -0.0019,17.28626 h 14.597116"
       style="fill:none;fill-opacity:1;"
       id="path882" /></g><g
     id="g947"
     inkscape:label="Inside"
     style=""
     transform="matrix(1.2092994,0,0,1.2122945,-7.1992625,-2.8690482)"><path
       inkscape:label="bottom"
       style="display:inline;fill:none;"
       sodipodi:nodetypes="ccccccccc"
       inkscape:connector-curvature="0"
       d="m 26.039791,13.256351 v 2.162541 h -2.568017 -2.568017 v -2.162541 -2.16254 h 2.568017 2.568017 z"
       id="path849" /><path
       inkscape:label="top"
       id="path853"
       d="m 24.306718,8.7516784 c 0.621801,0.3648934 0.844831,0.7908377 0.898824,1.7097766 l 0.04058,0.628506 h -1.770474 -1.76377 v -0.398772 c 0,-1.101385 0.385362,-1.7771789 1.196314,-2.0746694 0.385009,-0.1422167 1.026925,-0.081166 1.398523,0.1351588 z"
       inkscape:connector-curvature="0"
       sodipodi:nodetypes="cccccscc"
       style="display:inline;fill:none;" /></g></g><g
   id="g916"
   inkscape:label="State0"
   style=""><g
     id="g924"
     inkscape:label="Outside"
     style=""><path
       id="path4605"
       style="fill:none;fill-opacity:1;"
       d="M 11.607962,23.9984 H 20.39178 M 1.4012737,20.23859 H 15.99839 M 16.00029,2.95233 H 1.8167711 L 1.5993486,3.14548 1.3876005,3.33832 1.3705735,13.40191 c -0.011344,10.0067 -0.011344,10.05765 0.1030374,10.24487 0.2230969,0.36318 0.022994,0.35162 5.318794,0.35162 h 4.8155541 l -0.02299,1.00986 c -0.01703,0.96423 -0.023,1.01548 -0.177404,1.32178 -0.366154,0.74325 -0.943757,1.14582 -1.8358471,1.27647 -0.457543,0.0682 -0.537585,0.0965 -0.674966,0.24972 -0.303137,0.32912 -0.280142,0.73169 0.04569,1.01548 l 0.200101,0.17596 h 6.8571781 6.857477 l 0.2001,-0.17596 c 0.325835,-0.28379 0.348832,-0.68636 0.04569,-1.01548 -0.137382,-0.15315 -0.217422,-0.18159 -0.674967,-0.24972 -0.89209,-0.13035 -1.469694,-0.53322 -1.835847,-1.27647 -0.154407,-0.3063 -0.160082,-0.35725 -0.177404,-1.32741 L 20.39178,23.9984 h 4.8278 c 4.569462,0 4.832579,-0.005 5.02133,-0.10221 0.10871,-0.0568 0.245794,-0.19284 0.303137,-0.30067 0.09169,-0.1816 0.09736,-0.76014 0.08572,-10.22236 L 30.612737,3.33802 30.401287,3.14518 30.183865,2.95233 H 16.000318 l -0.0019,17.28626 h 14.597116"
       inkscape:connector-curvature="0"
       inkscape:label="Monitor"
       sodipodi:nodetypes="ccccccccccscccccccccccccccsccccccccc" /></g><g
     id="g921"
     inkscape:label="Inside"
     style="fill:none;fill-opacity:1;"
     transform="matrix(1.2092994,0,0,1.2122945,-7.1992625,-2.8690482)"><path
       id="path822"
       d="m 26.039791,13.256351 v 2.162541 h -2.568017 -2.568017 v -2.162541 -2.16254 h 2.568017 2.568017 z"
       inkscape:connector-curvature="0"
       sodipodi:nodetypes="ccccccccc"
       style="display:inline;fill:none;fill-opacity:1;"
       inkscape:label="bottom" /><path
       style="display:inline;fill:none;fill-opacity:1;"
       sodipodi:nodetypes="ccccc"
       inkscape:connector-curvature="0"
       d="m 25.256611,10.689056 c 0,-1.1013852 0.385362,-1.7771782 1.196314,-2.0746692 0.385009,-0.142217 1.026925,-0.08117 1.398523,0.135159 0.621801,0.364893 0.844831,0.790838 0.898824,1.7097762 l 0.04058,0.628506"
       id="path843"
       inkscape:label="top" /></g></g></svg>