<?xml version="1.0" encoding="UTF-8" standalone="no"?>
<!-- Svg Vector Icons : http://www.onlinewebfonts.com/icon -->

<svg
   xmlns:dc="http://purl.org/dc/elements/1.1/"
   xmlns:cc="http://creativecommons.org/ns#"
   xmlns:rdf="http://www.w3.org/1999/02/22-rdf-syntax-ns#"
   xmlns:svg="http://www.w3.org/2000/svg"
   xmlns="http://www.w3.org/2000/svg"
   xmlns:sodipodi="http://sodipodi.sourceforge.net/DTD/sodipodi-0.dtd"
   xmlns:inkscape="http://www.inkscape.org/namespaces/inkscape"
   version="1.1"
   x="0px"
   y="0px"
   viewBox="0 0 32 32"
   enable-background="new 0 0 1000 1000"
   xml:space="preserve"
   id="svg18"
   sodipodi:docname="wm_draw.svg"
   inkscape:version="0.92.4 (5da689c313, 2019-01-14)"
   width="32"
   height="32"><defs
   id="defs22" /><sodipodi:namedview
   pagecolor="#ffffff"
   bordercolor="#666666"
   borderopacity="1"
   objecttolerance="10"
   gridtolerance="10"
   guidetolerance="10"
   inkscape:pageopacity="0"
   inkscape:pageshadow="2"
   inkscape:window-width="2560"
   inkscape:window-height="1417"
   id="namedview20"
   showgrid="false"
   inkscape:zoom="30.208"
   inkscape:cx="16.896166"
   inkscape:cy="15.139989"
   inkscape:window-x="-8"
   inkscape:window-y="-8"
   inkscape:window-maximized="1"
   inkscape:current-layer="svg18" />
<metadata
   id="metadata2"> Svg Vector Icons : http://www.onlinewebfonts.com/icon <rdf:RDF><cc:Work
     rdf:about=""><dc:format>image/svg+xml</dc:format><dc:type
       rdf:resource="http://purl.org/dc/dcmitype/StillImage" /><dc:title></dc:title></cc:Work></rdf:RDF></metadata>

<g
   inkscape:label="all"
   style="display:inline;"
   transform="matrix(0.03031175,0,0,0.03031175,0.84414708,0.84397352)"
   id="g4587"><g
     id="g818"
     inkscape:label="Outside"
     style=""><path
       inkscape:label="Monitor"
       inkscape:connector-curvature="0"
       d="M 359.99258,754.97315 H 639.99784 M 34.629952,635.12016 H 965.26605 M 40.944061,90.23627 34.194079,96.383721 33.651415,417.18437 c -0.361776,318.9876 -0.361776,320.61181 3.284547,326.57984 7.111758,11.57723 0.733073,11.20894 169.549268,11.20894 h 153.50735 l -0.73307,32.1915 c -0.54266,30.73726 -0.73307,32.37091 -5.65513,42.13507 -11.67205,23.69271 -30.08455,36.52587 -58.52206,40.69028 -14.5853,2.17191 -17.13677,3.07844 -21.51617,7.96052 -9.66323,10.49127 -8.93016,23.32443 1.45663,32.37091 l 6.37868,5.60919 h 218.58899 218.5985 l 6.37869,-5.60919 c 10.38678,-9.04648 11.11986,-21.87964 1.45662,-32.37091 -4.37939,-4.88208 -6.93087,-5.78861 -21.51616,-7.96052 -28.43751,-4.15497 -46.85002,-16.99757 -58.52206,-40.69028 -4.92206,-9.76416 -5.10295,-11.38837 -5.65513,-42.31449 l -0.73307,-32.01208 h 153.89768 c 145.66252,0 154.05002,-0.17942 160.06693,-3.25786 3.46543,-1.81307 7.83531,-6.14745 9.66323,-9.58474 2.92277,-5.78861 3.10366,-24.23097 2.73236,-325.86215 l -0.54266,-319.894122 -6.74046,-6.147452 -6.93087,-6.147451 H 500.00949 47.874931 Z"
       style="fill:none;"
       id="path4605" /><path
       id="path827"
       stroke-miterlimit="10"
       d="M 877.1627,399.21308 619.35084,166.61365 v 321.32421 l 75.12982,-75.53482 81.61854,158.26211 h 69.96233 L 756.668,399.21558 h 120.4947 z"
       inkscape:connector-curvature="0"
       style="fill:none;fill-rule:evenodd;"
       inkscape:label="Pointer" /></g></g></svg>