<?xml version="1.0" encoding="UTF-8" standalone="no"?>
<!-- Svg Vector Icons : http://www.onlinewebfonts.com/icon -->

<svg
   xmlns:dc="http://purl.org/dc/elements/1.1/"
   xmlns:cc="http://creativecommons.org/ns#"
   xmlns:rdf="http://www.w3.org/1999/02/22-rdf-syntax-ns#"
   xmlns:svg="http://www.w3.org/2000/svg"
   xmlns="http://www.w3.org/2000/svg"
   xmlns:sodipodi="http://sodipodi.sourceforge.net/DTD/sodipodi-0.dtd"
   xmlns:inkscape="http://www.inkscape.org/namespaces/inkscape"
   version="1.1"
   x="0px"
   y="0px"
   viewBox="0 0 32 32"
   enable-background="new 0 0 1000 1000"
   xml:space="preserve"
   id="svg18"
   sodipodi:docname="wm_draw_scribble.svg"
   inkscape:version="0.92.4 (5da689c313, 2019-01-14)"
   width="32"
   height="32"><defs
   id="defs22" /><sodipodi:namedview
   pagecolor="#ffffff"
   bordercolor="#666666"
   borderopacity="1"
   objecttolerance="10"
   gridtolerance="10"
   guidetolerance="10"
   inkscape:pageopacity="0"
   inkscape:pageshadow="2"
   inkscape:window-width="2560"
   inkscape:window-height="1417"
   id="namedview20"
   showgrid="false"
   inkscape:zoom="30.208"
   inkscape:cx="-1.4919792"
   inkscape:cy="12.332065"
   inkscape:window-x="-8"
   inkscape:window-y="-8"
   inkscape:window-maximized="1"
   inkscape:current-layer="svg18" />
<metadata
   id="metadata2"> Svg Vector Icons : http://www.onlinewebfonts.com/icon <rdf:RDF><cc:Work
     rdf:about=""><dc:format>image/svg+xml</dc:format><dc:type
       rdf:resource="http://purl.org/dc/dcmitype/StillImage" /><dc:title /></cc:Work></rdf:RDF></metadata>

<g
   id="g837"
   style=""><g
     id="g827"
     inkscape:label="Outside"
     style=""><path
       inkscape:label="Monitor"
       inkscape:connector-curvature="0"
       d="m 11.512489,24.172267 h 8.974759 M 1.0839298,20.330726 H 30.91278 M 1.2863103,2.8660477 1.0699592,3.0630864 1.0525656,13.345424 C 1.04097,23.56965 1.04097,23.621709 1.1578423,23.812997 c 0.2279469,0.371075 0.023497,0.35927 5.4344118,0.35927 h 4.9202349 l -0.0235,1.031806 c -0.01739,0.985194 -0.0235,1.037556 -0.181259,1.350518 -0.374114,0.759401 -0.964273,1.170731 -1.8757552,1.304209 -0.4674897,0.06961 -0.5492697,0.09867 -0.6896387,0.255151 -0.3097269,0.336268 -0.2862304,0.747598 0.046688,1.037556 l 0.2044501,0.179787 h 7.0062388 7.006543 l 0.20445,-0.179787 c 0.332919,-0.289958 0.356415,-0.701288 0.04669,-1.037556 C 23.117027,27.95747 23.035247,27.928414 22.567758,27.8588 21.656276,27.725624 21.066116,27.313992 20.692002,26.554591 20.53424,26.241629 20.528442,26.189569 20.510743,25.198322 l -0.0235,-1.026055 h 4.932745 c 4.668791,0 4.937629,-0.0058 5.130483,-0.104421 0.111075,-0.05811 0.251138,-0.197039 0.309727,-0.307211 0.09368,-0.185537 0.09948,-0.776654 0.08758,-10.44457 L 30.930388,3.0627838 30.714342,2.865745 30.492193,2.6687062 H 16.000326 1.5084593 Z"
       style="fill:none;"
       id="path4605" /><path
       id="path827"
       stroke-miterlimit="10"
       d="M 28.088882,12.769406 19.825468,5.3141039 V 15.613223 l 2.408069,-2.421051 2.616047,5.072635 h 2.24244 l -2.865251,-5.49532 h 3.862109 z"
       inkscape:connector-curvature="0"
       style="fill:none;fill-rule:evenodd;"
       inkscape:label="Pointer" /></g><g
     id="g830"
     inkscape:label="Inside"
     style=""><path
       inkscape:label="Scribble"
       inkscape:connector-curvature="0"
       id="path855"
       d="m 18.411153,6.0128184 c -0.117956,-0.017122 -0.01994,-0.1019382 -0.04802,-0.1440525 -0.0099,-0.014889 -0.03313,-0.014082 -0.04802,-0.024009 -0.03533,-0.023552 -0.06071,-0.072483 -0.09603,-0.096035 -0.0067,-0.00444 -0.01601,0 -0.02401,0 -0.02401,-0.024009 -0.04486,-0.051654 -0.07203,-0.072026 -0.0064,-0.0048 -0.01685,0.00358 -0.02401,0 -0.07322,-0.036608 0.04391,-0.019033 -0.07203,-0.048018 -0.01553,-0.00388 -0.03283,0.00506 -0.04802,0 -0.01074,-0.00358 -0.01601,-0.016006 -0.02401,-0.024009 -0.01601,-0.016006 -0.02777,-0.037895 -0.04802,-0.048018 -0.01432,-0.00716 -0.03249,0.00388 -0.04802,0 -0.01736,-0.00434 -0.03066,-0.019668 -0.04802,-0.024009 -0.02118,-0.0053 -0.07547,0.00686 -0.09604,0 -0.01698,-0.00566 -0.03066,-0.019669 -0.04802,-0.024009 -0.01553,-0.00388 -0.03201,0 -0.04802,0 -0.01601,0 -0.03201,0 -0.04802,0 -0.008,0 -0.01642,0.00253 -0.02401,0 -0.01698,-0.00566 -0.03066,-0.019668 -0.04802,-0.024009 -0.01553,-0.00388 -0.03201,0 -0.04802,0 -0.01601,0 -0.03201,0 -0.04802,0 -0.01846,0 -0.121843,-0.00555 -0.144052,0 -0.02455,0.00614 -0.04747,0.017871 -0.07203,0.024009 -0.0078,0.00194 -0.01642,-0.00253 -0.02401,0 -0.01698,0.00566 -0.03047,0.020499 -0.04802,0.024009 -0.02354,0.00471 -0.04874,-0.00582 -0.07203,0 -0.01098,0.00274 -0.01459,0.017731 -0.02401,0.024009 -0.01489,0.00993 -0.03104,0.01835 -0.04802,0.024009 -0.0076,0.00253 -0.01624,-0.00194 -0.02401,0 -0.03123,0.00781 -0.09024,0.028148 -0.120044,0.048018 -0.0094,0.00628 -0.01459,0.017731 -0.02401,0.024009 -0.116109,0.058055 0.0013,-0.00698 -0.07203,0.048017 -0.02308,0.017313 -0.05162,0.027614 -0.07203,0.048018 -0.0057,0.00566 0,0.016006 0,0.024009 -0.016,0.016006 -0.02777,0.037895 -0.04802,0.048018 -0.01432,0.00716 -0.0347,-0.00888 -0.04802,0 -0.01489,0.00993 -0.01327,0.033701 -0.02401,0.048017 -0.01358,0.018109 -0.03201,0.032012 -0.04802,0.048018 -0.02739,0.027394 -0.09763,0.090157 -0.120043,0.1200438 -0.01074,0.014316 -0.01408,0.033128 -0.02401,0.048017 -0.0063,0.00942 -0.01601,0.016006 -0.02401,0.024009 -0.01601,0.016006 -0.03201,0.032011 -0.04802,0.048017 -0.016,0.016006 -0.03444,0.029909 -0.04802,0.048018 -0.01074,0.014316 -0.01283,0.034044 -0.02401,0.048018 -0.02121,0.026513 -0.05165,0.044863 -0.07203,0.072026 -0.0048,0.0064 0,0.016006 0,0.024009 -0.01601,0.024009 -0.02761,0.051623 -0.04802,0.072027 -0.0204,0.020403 -0.05162,0.027614 -0.07203,0.048017 -0.02531,0.025308 -0.02654,0.067403 -0.04802,0.096035 -0.01358,0.018109 -0.03201,0.032012 -0.04802,0.048018 -0.008,0.008 -0.01895,0.013886 -0.02401,0.024009 -0.0036,0.00716 0.0036,0.016851 0,0.024009 -0.03272,0.065447 -0.08732,0.1026145 -0.120043,0.1680614 -0.0036,0.00716 0.0036,0.016851 0,0.024009 -0.0051,0.010123 -0.01895,0.013886 -0.02401,0.024009 -0.0036,0.00716 0.0044,0.01735 0,0.024009 -0.103845,0.103845 -0.0038,-0.00636 -0.07203,0.096035 -0.0063,0.00942 -0.02043,0.013272 -0.02401,0.024009 -0.0051,0.015184 0.0059,0.033157 0,0.048018 -0.01072,0.026791 -0.03511,0.046218 -0.04802,0.072026 -0.0072,0.014316 0.0072,0.033702 0,0.048018 -0.0051,0.010123 -0.01895,0.013886 -0.02401,0.024009 -0.0036,0.00716 0.0036,0.016851 0,0.024009 -0.0051,0.010123 -0.01895,0.013886 -0.02401,0.024009 -0.0072,0.014316 0.0072,0.033701 0,0.048018 -0.0051,0.010123 -0.01895,0.013886 -0.02401,0.024009 -0.0072,0.014316 0.0072,0.033702 0,0.048018 -0.0051,0.010123 -0.01895,0.013886 -0.02401,0.024009 -0.0043,0.00868 0,0.1033447 0,0.1200439 0,0.088032 0,0.1760641 0,0.2640962 0,0.00353 0.0049,0.100618 0,0.1200438 -0.0061,0.024552 -0.01787,0.047475 -0.02401,0.072026 -0.0019,0.00776 0,0.016006 0,0.024009 0,0.016006 0,0.032011 0,0.048017 0,0.032012 0,0.064023 0,0.096035 0,0.019656 0.0052,0.104488 0,0.1200438 -0.0057,0.016977 -0.01967,0.030657 -0.02401,0.048018 -0.0039,0.015528 0,0.032011 0,0.048017 0,0.016006 0,0.032012 0,0.048018 0,0.080029 0,0.1600583 0,0.2400876 0,0.05602 0,0.1120407 0,0.1680614 0,0.024009 0,0.048017 0,0.072026 0,0.016006 0.0031,0.032322 0,0.048017 -0.005,0.024816 -0.01905,0.047211 -0.02401,0.072027 -0.0063,0.03139 0.0063,0.064645 0,0.096035 -0.005,0.024816 -0.01905,0.04721 -0.02401,0.072026 -0.0031,0.015695 0.0039,0.03249 0,0.048018 -0.0043,0.017361 -0.0205,0.03047 -0.02401,0.048018 -0.0094,0.047085 0.0094,0.096967 0,0.1440525 -0.0035,0.017548 -0.01736,0.031402 -0.02401,0.048018 -0.0094,0.023497 -0.01461,0.048529 -0.02401,0.072026 -0.0066,0.016615 -0.01967,0.030656 -0.02401,0.048018 -0.0039,0.015528 0,0.032012 0,0.048017 -0.008,0.016006 -0.01835,0.031041 -0.02401,0.048018 -0.0025,0.00759 0.0036,0.016851 0,0.024009 -0.0051,0.010123 -0.02043,0.013272 -0.02401,0.024009 -0.0051,0.015184 0.0051,0.032833 0,0.048018 -0.0036,0.010737 -0.01601,0.016006 -0.02401,0.024009 -0.008,0.016006 -0.01967,0.030657 -0.02401,0.048018 -0.0039,0.015528 0.0051,0.032833 0,0.048018 -0.0072,0.021474 -0.03546,0.029183 -0.04802,0.048017 -0.0099,0.01489 -0.01408,0.033128 -0.02401,0.048018 -0.0063,0.00942 -0.01895,0.013886 -0.02401,0.024009 -0.0036,0.0072 0.0036,0.01685 0,0.02401 -0.01441,0.02881 -0.05762,0.04322 -0.07203,0.07203 -0.0036,0.0072 0.0057,0.01835 0,0.02401 -0.01265,0.01265 -0.03313,0.01408 -0.04802,0.02401 -0.0094,0.0063 -0.01459,0.01773 -0.02401,0.02401 -0.01489,0.0099 -0.03313,0.01408 -0.04802,0.02401 -0.02186,0.01457 -0.05075,0.06139 -0.07203,0.07203 -0.0072,0.0036 -0.01601,0 -0.02401,0 -0.016,0 -0.0337,-0.0072 -0.04802,0 -0.0072,0.0036 0.0067,0.01957 0,0.02401 -0.06751,0.045 -0.08057,0.01131 -0.144053,0.02401 -0.02482,0.005 -0.04747,0.01787 -0.07203,0.02401 -0.02033,0.0051 -0.07111,0 -0.09603,0 -0.07203,0 -0.144052,0 -0.216079,0 -0.05602,0 -0.112041,0 -0.168061,0 -0.02401,0 -0.04848,0.0047 -0.07203,0 -0.02482,-0.005 -0.04706,-0.01985 -0.07203,-0.02401 -0.03947,-0.0066 -0.08122,0.0097 -0.120043,0 -0.115937,-0.02898 0.0012,-0.01141 -0.07203,-0.04802 -0.0072,-0.0036 -0.01642,0.0025 -0.02401,0 -0.01698,-0.0057 -0.03104,-0.01835 -0.04802,-0.02401 -0.0076,-0.0025 -0.01685,0.0036 -0.02401,0 -0.01012,-0.0051 -0.01389,-0.01895 -0.02401,-0.02401 -0.01432,-0.0072 -0.03249,0.0039 -0.04802,0 -0.02455,-0.0061 -0.05032,-0.01099 -0.07203,-0.02401 -0.01941,-0.01165 -0.02918,-0.03546 -0.04802,-0.04802 -0.0067,-0.0044 -0.01642,0.0025 -0.02401,0 -0.0212,-0.0071 -0.125055,-0.05936 -0.144053,-0.07203 -0.0094,-0.0063 -0.01601,-0.01601 -0.02401,-0.02401 -0.02401,-0.01601 -0.04728,-0.03317 -0.07203,-0.04802 -0.01534,-0.0092 -0.03313,-0.01408 -0.04802,-0.024009 -0.0094,-0.00628 -0.01459,-0.017731 -0.02401,-0.024009 -0.02978,-0.019853 -0.0674,-0.026544 -0.09604,-0.048018 -0.01811,-0.013581 -0.03201,-0.032012 -0.04802,-0.048018 -0.008,-0.008 -0.01389,-0.018947 -0.02401,-0.024009 -0.02263,-0.011318 -0.05032,-0.010988 -0.07203,-0.024009 -0.03422,-0.010929 -0.04291,-0.054557 -0.07203,-0.072026 -0.03069,-0.018414 -0.0674,-0.026543 -0.09604,-0.048017 -0.0064,-0.0048 0.0057,-0.01835 0,-0.024009 -0.09007,-0.090069 -0.04426,-0.01519 -0.120044,-0.072026 -0.01811,-0.013581 -0.02991,-0.034436 -0.04802,-0.048018 -0.01432,-0.010737 -0.0337,-0.013272 -0.04802,-0.024009 -0.01811,-0.013582 -0.02918,-0.035462 -0.04802,-0.048018 -0.02978,-0.019853 -0.0674,-0.026543 -0.09604,-0.048018 -0.0064,-0.0048 0.0057,-0.01835 0,-0.024009 -0.04081,-0.040807 -0.103246,-0.055228 -0.144053,-0.096035 -0.0057,-0.00566 0.0057,-0.01835 0,-0.024009 -0.01265,-0.012654 -0.0337,-0.013272 -0.04802,-0.024009 -0.01811,-0.013581 -0.02991,-0.034436 -0.04802,-0.048018 -0.01432,-0.010737 -0.03536,-0.011355 -0.04802,-0.024009 -0.01265,-0.012654 -0.0091,-0.038091 -0.02401,-0.048018 -0.01332,-0.00888 -0.03521,0.0096 -0.04802,0 -0.02308,-0.017313 -0.02761,-0.051623 -0.04802,-0.072026 -0.0057,-0.00566 -0.01601,0 -0.02401,0 -0.02401,-0.024009 -0.05165,-0.044864 -0.07203,-0.072026 -0.0048,-0.0064 0.0057,-0.01835 0,-0.024009 -0.01265,-0.012653 -0.03313,-0.014082 -0.04802,-0.024009 -0.02247,-0.014979 -0.08066,-0.080659 -0.09604,-0.096035 -0.008,-0.008 -0.01459,-0.017731 -0.02401,-0.024009 -0.01489,-0.00993 -0.03536,-0.011355 -0.04802,-0.024009 -0.0057,-0.00566 0.0057,-0.01835 0,-0.024009 -0.05831,-0.058312 -0.03525,0.00714 -0.07203,-0.048018 -0.0099,-0.01489 -0.01136,-0.035364 -0.02401,-0.048017 -0.0057,-0.00566 -0.01685,0.00358 -0.02401,0 -0.01012,-0.00506 -0.01601,-0.016006 -0.02401,-0.024009 -0.02401,-0.024009 -0.04802,-0.048017 -0.07203,-0.072026 -0.008,-0.008 -0.01459,-0.017731 -0.02401,-0.024009 -0.01489,-0.00993 -0.03313,-0.014082 -0.04802,-0.024009 -0.0277,-0.018468 -0.04432,-0.053558 -0.07203,-0.072026 -0.01489,-0.00993 -0.0337,-0.013272 -0.04802,-0.024009 -0.01811,-0.013581 -0.02991,-0.034436 -0.04802,-0.048018 -0.01432,-0.010737 -0.03313,-0.014083 -0.04802,-0.024009 -0.0094,-0.00628 -0.01459,-0.017731 -0.02401,-0.024009 -0.01489,-0.00993 -0.03313,-0.014082 -0.04802,-0.024009 -0.0094,-0.00628 -0.01327,-0.02043 -0.02401,-0.024009 -0.01518,-0.00506 -0.03283,0.00506 -0.04802,0 -0.01074,-0.00358 -0.01601,-0.016006 -0.02401,-0.024009 -0.01601,-0.016006 -0.02777,-0.037895 -0.04802,-0.048018 -0.01432,-0.00716 -0.03249,0.00388 -0.04802,0 -0.01736,-0.00434 -0.03104,-0.01835 -0.04802,-0.024009 -0.0076,-0.00253 -0.01685,0.00358 -0.02401,0 -0.01012,-0.00506 -0.01389,-0.018947 -0.02401,-0.024009 -0.02264,-0.011318 -0.04748,-0.017871 -0.07203,-0.024009 -0.0078,-0.00194 -0.01735,0.00444 -0.02401,0 -0.01883,-0.012556 -0.027,-0.039611 -0.04802,-0.048017 -0.02229,-0.00892 -0.04848,0.00471 -0.07203,0 -0.04443,0.017833 -0.04403,-0.041019 -0.07203,-0.048018 -0.02329,-0.00582 -0.04802,0 -0.07203,0 -0.016,0 -0.0337,0.00716 -0.04802,0 -0.0072,-0.00358 0.0072,-0.02043 0,-0.024009 -0.01432,-0.00716 -0.03249,0.00388 -0.04802,0 -0.01736,-0.00434 -0.03201,-0.016006 -0.04802,-0.024009 -0.02401,0 -0.04834,0.00395 -0.07203,0 -0.02496,-0.00416 -0.04721,-0.019046 -0.07203,-0.024009 -0.02354,-0.00471 -0.04873,0.00582 -0.07203,0 -0.02455,-0.00614 -0.04706,-0.019848 -0.072026,-0.024009 -0.03947,-0.00658 -0.080029,0 -0.1200439,0 -0.1040379,0 -0.2080758,0 -0.3121138,0 -0.02789,0 -0.098279,0.00544 -0.1200438,0 -0.017361,-0.00434 -0.030657,-0.019668 -0.048018,-0.024009 -0.023292,-0.00582 -0.048017,0 -0.072026,0 -0.072026,0 -0.1440524,0 -0.2160787,0 -0.080029,0 -0.1600583,0 -0.2400876,0 -0.03142,0 -0.092966,-0.00542 -0.1200438,0 -0.024816,0.00496 -0.04721,0.019045 -0.072026,0.024009 -0.015695,0.00314 -0.032012,0 -0.048018,0 -0.032012,0 -0.064023,0 -0.096035,0 -0.008,0 -0.016417,-0.00253 -0.024009,0 -0.1739051,0.057969 0.037853,-0.00692 -0.072026,0.048018 -0.00716,0.00358 -0.016006,0 -0.024009,0 -0.016006,0 -0.032833,-0.00506 -0.048018,0 -0.010737,0.00358 -0.013272,0.02043 -0.024009,0.024009 -0.015185,0.00506 -0.033701,-0.00716 -0.048018,0 -0.00716,0.00358 0.00566,0.01835 0,0.024009 -0.011318,0.011318 -0.033702,-0.00716 -0.048018,0 -0.073216,0.036608 0.043911,0.019033 -0.072026,0.048018 -0.015528,0.00388 -0.032833,-0.00506 -0.048017,0 -0.010737,0.00358 -0.014592,0.017731 -0.024009,0.024009 -0.014889,0.00993 -0.032673,0.014802 -0.048018,0.024009 -0.024743,0.014846 -0.046218,0.035113 -0.072026,0.048018 -0.00716,0.00358 -0.016851,-0.00358 -0.024009,0 -0.020246,0.010123 -0.029184,0.035462 -0.048018,0.048018 -0.014889,0.00993 -0.033128,0.014082 -0.048018,0.024009 -0.018834,0.012556 -0.029183,0.035461 -0.048018,0.048017 -0.014889,0.00993 -0.033701,0.013272 -0.048017,0.024009 -0.027163,0.020372 -0.043775,0.053192 -0.072026,0.072026 -0.01489,0.00993 -0.033702,0.013272 -0.048018,0.024009 -0.045271,0.033953 -0.076571,0.083816 -0.1200438,0.1200439 -0.022167,0.018472 -0.053554,0.02585 -0.072026,0.048018 -0.022912,0.027495 -0.02271,0.070728 -0.048018,0.096035 -0.025307,0.025307 -0.070727,0.02271 -0.096035,0.048018 -0.025307,0.025307 -0.025105,0.06854 -0.048017,0.096035 -0.018473,0.022167 -0.049495,0.029992 -0.072026,0.048018 -0.017676,0.01414 -0.033526,0.030628 -0.048018,0.048018 -0.025617,0.03074 -0.04641,0.065295 -0.072026,0.096035 -0.014491,0.017389 -0.033877,0.030342 -0.048018,0.048017 -0.018025,0.022532 -0.027614,0.051623 -0.048018,0.072026 -0.020403,0.020404 -0.051623,0.027614 -0.072026,0.048018 -0.020403,0.020403 -0.032012,0.048018 -0.048018,0.072026 -0.016006,0.024009 -0.033172,0.047283 -0.048018,0.072026 -0.00921,0.015345 -0.013272,0.033702 -0.024009,0.048018 -0.013581,0.018109 -0.035462,0.029183 -0.048018,0.048018 -0.00444,0.00666 0.00358,0.016851 0,0.024009 -0.027395,0.054791 -0.054059,0.066141 -0.072026,0.1200438 -0.00253,0.00759 0.00444,0.01735 0,0.024009 -0.012556,0.018834 -0.034436,0.029909 -0.048018,0.048018 -0.062915,0.083887 0.00439,0.010844 -0.024009,0.096035 -0.00358,0.010737 -0.016006,0.016006 -0.024009,0.024009 -0.008,0.024009 -0.017871,0.047475 -0.024009,0.072026 -0.00194,0.00776 0.00444,0.01735 0,0.024009 -0.067944,0.101917 -0.038588,-0.013711 -0.072026,0.120044 -0.012004,0.04802 0.024009,0 0,0.07203 -0.00358,0.01074 -0.018947,0.01389 -0.024009,0.02401 -0.058026,0.116052 -0.0057,0.02848 -0.024009,0.120044 -0.00496,0.02482 -0.019848,0.04706 -0.024009,0.07203 -0.00395,0.02368 0,0.04802 0,0.07203 0,0.07203 0,0.144052 0,0.216079 0,0.176064 0,0.352128 0,0.528192 0,0.168062 0,0.336123 0,0.504184 0,0.03201 0,0.06402 0,0.09604 0,0.03201 -0.00397,0.06427 0,0.09603 0.00409,0.03274 0.019342,0.06337 0.024009,0.09604 0.0034,0.02377 0,0.04802 0,0.07203 0,0.03201 0,0.06402 0,0.09604 0,0.03201 -0.00397,0.06427 0,0.09604 0.00409,0.03274 0.019916,0.06329 0.024009,0.09603 0.00695,0.05559 -0.00921,0.112804 0,0.168062 0.00416,0.02496 0.02043,0.04697 0.024009,0.07203 0.00453,0.03169 -0.00354,0.06422 0,0.09604 0.00451,0.04056 0.018238,0.07965 0.024009,0.120044 0.00226,0.01585 -0.00263,0.03223 0,0.04802 0.00542,0.03255 0.019342,0.06337 0.024009,0.09604 0.0034,0.02377 0,0.04802 0,0.07203 0,0.03201 0,0.06402 0,0.09603 0,0.03201 -0.00526,0.06446 0,0.09604 0.00294,0.01765 0.01835,0.03104 0.024009,0.04802 0.010434,0.0313 0.012423,0.06514 0.024009,0.09604 0.012567,0.03351 0.0367,0.06208 0.048017,0.09604 0.00506,0.01518 -0.00314,0.03232 0,0.04802 0.012624,0.06312 0.048805,0.110008 0.072026,0.168062 0.018798,0.047 0.028079,0.09753 0.048017,0.144052 0.014098,0.0329 0.032012,0.06402 0.048018,0.09604 0.008,0.01601 0.013272,0.0337 0.024009,0.04802 0.013581,0.01811 0.039611,0.027 0.048018,0.04802 0.00892,0.02229 -0.00582,0.04873 0,0.07203 0.00274,0.01098 0.016006,0.01601 0.024009,0.02401 0.016006,0.016 0.037894,0.02777 0.048017,0.04802 0.00716,0.01432 -0.00716,0.0337 0,0.04802 0.010123,0.02025 0.035461,0.02918 0.048018,0.04802 0.00444,0.0067 -0.00444,0.01735 0,0.02401 0.012556,0.01883 0.035462,0.02918 0.048018,0.04802 0.00444,0.0067 -0.00566,0.01835 0,0.02401 0.012654,0.01265 0.03728,0.0097 0.048018,0.02401 0.015184,0.02025 0.00882,0.05178 0.024009,0.07203 0.010737,0.01432 0.035364,0.01136 0.048018,0.02401 0.00566,0.0057 -0.00566,0.01835 0,0.02401 0.028295,0.02829 0.06774,0.04373 0.096035,0.07203 0.00566,0.0057 -0.00566,0.01835 0,0.02401 0.020404,0.0204 0.051623,0.02761 0.072026,0.04802 0.012654,0.01265 0.013272,0.0337 0.024009,0.04802 0.013581,0.01811 0.032012,0.03201 0.048018,0.04802 0.016006,0.01601 0.032011,0.03201 0.048017,0.04802 0.024009,0.02401 0.044864,0.05165 0.072026,0.07203 0.023084,0.01731 0.048943,0.0307 0.072026,0.04802 0.032011,0.02401 0.038732,0.07384 0.072026,0.09604 0.027455,0.0183 0.066521,0.0093 0.096035,0.02401 0.00716,0.0036 -0.00566,0.01835 0,0.02401 0.020404,0.0204 0.047284,0.03317 0.072026,0.04802 0.05333,0.032 0.1147318,0.04003 0.1680614,0.07203 0.018442,0.01107 0.088683,0.06419 0.1200438,0.07203 0.015528,0.0039 0.033702,-0.0072 0.048018,0 0.020246,0.01012 0.027772,0.03789 0.048017,0.04802 0.014316,0.0072 0.032833,-0.0051 0.048018,0 0.010737,0.0036 0.013886,0.01895 0.024009,0.02401 0.182491,0.09125 0.014188,0.0035 0.096035,0.02401 0.024552,0.0061 0.047475,0.01787 0.072026,0.02401 0.00776,0.0019 0.016851,-0.0036 0.024009,0 0.010123,0.0051 0.013886,0.01895 0.024009,0.02401 0.00716,0.0036 0.016006,0 0.024009,0 0.024967,0 0.125167,-0.0047 0.1440528,0 0.017361,0.0043 0.03104,0.01835 0.048017,0.02401 0.00759,0.0025 0.016245,-0.0019 0.024009,0 0.024552,0.0061 0.047063,0.01985 0.072026,0.02401 0.023682,0.0039 0.048484,-0.0047 0.072026,0 0.017548,0.0035 0.030657,0.01967 0.048018,0.02401 0.015528,0.0039 0.032012,0 0.048018,0 0.064023,0 0.1280466,0 0.19207,0 0.024009,0 0.048017,0 0.072026,0 0.008,0 0.016417,-0.0025 0.024009,0 0.016977,0.0057 0.03047,0.0205 0.048018,0.02401 0.039237,0.0078 0.080029,0 0.1200438,0 0.072026,0 0.1440524,0 0.2160786,0 0.032012,0 0.064459,-0.0053 0.096035,0 0.017651,0.0029 0.030657,0.01967 0.048018,0.02401 0.015528,0.0039 0.032011,0 0.048017,0 0.024009,0 0.048018,0 0.072026,0 0.1040379,0 0.208076,0 0.312114,0 0.04802,0 0.09604,0 0.144052,0 0.01601,0 0.03283,0.0051 0.04802,0 0.01074,-0.0036 0.01303,-0.02126 0.02401,-0.02401 0.03106,-0.0078 0.06402,0 0.09603,0 0.08803,0 0.176065,0 0.264097,0 0.0208,0 0.08213,0.0046 0.09603,0 0.01698,-0.0057 0.03104,-0.01835 0.04802,-0.02401 0.02278,-0.0076 0.04874,0.0058 0.07203,0 0.01736,-0.0043 0.03066,-0.01967 0.04802,-0.02401 0.01553,-0.0039 0.03283,0.0051 0.04802,0 0.01074,-0.0036 0.01327,-0.02043 0.02401,-0.02401 0.02524,-0.0084 0.119437,0.0062 0.144053,0 0.01098,-0.0027 0.01389,-0.01895 0.02401,-0.02401 0.0072,-0.0036 0.01642,0.0025 0.02401,0 0.01698,-0.0057 0.03104,-0.01835 0.04802,-0.02401 0.0076,-0.0025 0.01685,0.0036 0.02401,0 0.01012,-0.0051 0.01389,-0.01895 0.02401,-0.02401 0.0072,-0.0036 0.01601,0 0.02401,0 0.01601,-0.008 0.03313,-0.01408 0.04802,-0.02401 0.0094,-0.0063 0.01389,-0.01895 0.02401,-0.02401 0.0072,-0.0036 0.01642,0.0025 0.02401,0 0.01698,-0.0057 0.0314,-0.01736 0.04802,-0.02401 0.0235,-0.0094 0.04853,-0.01461 0.07203,-0.02401 0.01661,-0.0066 0.03313,-0.01408 0.04802,-0.02401 0.0094,-0.0063 0.01327,-0.02043 0.02401,-0.02401 0.01519,-0.0051 0.03283,0.0051 0.04802,0 0.01074,-0.0036 0.01459,-0.01773 0.02401,-0.02401 0.01209,-0.05289 0.04939,-0.01269 0.07203,-0.02401 0.01012,-0.0051 0.01459,-0.01773 0.02401,-0.02401 0.01489,-0.0099 0.03313,-0.01408 0.04802,-0.02401 0.0094,-0.0063 0.01327,-0.02043 0.02401,-0.02401 0.01518,-0.0051 0.03283,0.0051 0.04802,0 0.02147,-0.0072 0.02777,-0.0379 0.04802,-0.04802 0.0072,-0.0036 0.01685,0.0036 0.02401,0 0.0086,-0.0043 0.08938,-0.08605 0.09604,-0.09604 0.0099,-0.01489 0.01135,-0.03536 0.02401,-0.04802 0.0057,-0.0057 0.01835,0.0057 0.02401,0 0.02907,-0.05814 0.01136,-0.03536 0.04802,-0.07203"
       style="fill:none;" /></g></g></svg>