<?xml version="1.0" encoding="UTF-8" standalone="no"?>
<!-- Svg Vector Icons : http://www.onlinewebfonts.com/icon -->

<svg
   xmlns:dc="http://purl.org/dc/elements/1.1/"
   xmlns:cc="http://creativecommons.org/ns#"
   xmlns:rdf="http://www.w3.org/1999/02/22-rdf-syntax-ns#"
   xmlns:svg="http://www.w3.org/2000/svg"
   xmlns="http://www.w3.org/2000/svg"
   xmlns:sodipodi="http://sodipodi.sourceforge.net/DTD/sodipodi-0.dtd"
   xmlns:inkscape="http://www.inkscape.org/namespaces/inkscape"
   version="1.1"
   x="0px"
   y="0px"
   viewBox="0 0 32 32"
   enable-background="new 0 0 1000 1000"
   xml:space="preserve"
   id="svg18"
   sodipodi:docname="wm_draw_square.svg"
   inkscape:version="0.92.4 (5da689c313, 2019-01-14)"
   width="32"
   height="32"><defs
   id="defs22" /><sodipodi:namedview
   pagecolor="#ffffff"
   bordercolor="#666666"
   borderopacity="1"
   objecttolerance="10"
   gridtolerance="10"
   guidetolerance="10"
   inkscape:pageopacity="0"
   inkscape:pageshadow="2"
   inkscape:window-width="2560"
   inkscape:window-height="1417"
   id="namedview20"
   showgrid="false"
   inkscape:zoom="30.208"
   inkscape:cx="13.577344"
   inkscape:cy="13.502853"
   inkscape:window-x="-8"
   inkscape:window-y="-8"
   inkscape:window-maximized="1"
   inkscape:current-layer="svg18" />
<metadata
   id="metadata2"> Svg Vector Icons : http://www.onlinewebfonts.com/icon <rdf:RDF><cc:Work
     rdf:about=""><dc:format>image/svg+xml</dc:format><dc:type
       rdf:resource="http://purl.org/dc/dcmitype/StillImage" /><dc:title /></cc:Work></rdf:RDF></metadata>

<g
   id="g837"
   style=""><g
     inkscape:label="Outside"
     id="g827"
     style=""><path
       inkscape:label="Monitor"
       inkscape:connector-curvature="0"
       d="m 11.577872,24.053197 h 8.843997 M 1.3012575,20.267627 H 30.695501 M 1.5006893,3.0574091 1.2874904,3.251577 1.2703503,13.384101 c -0.011427,10.075258 -0.011427,10.126559 0.1037428,10.31506 0.2246256,0.365668 0.023154,0.354036 5.3552323,0.354036 h 4.8485466 l -0.02315,1.016772 c -0.01714,0.970839 -0.02315,1.022438 -0.178618,1.33084 -0.368663,0.748337 -0.950224,1.153674 -1.8484258,1.285207 -0.4606783,0.0686 -0.5412668,0.09723 -0.6795906,0.251434 -0.3052142,0.331368 -0.2820601,0.736705 0.046008,1.022439 l 0.2014713,0.177167 h 6.9041571 6.904458 l 0.201471,-0.177167 c 0.328068,-0.285734 0.351222,-0.691071 0.04601,-1.022439 -0.138324,-0.154201 -0.218912,-0.182834 -0.67959,-0.251434 -0.898202,-0.131235 -1.479763,-0.53687 -1.848426,-1.285207 -0.155464,-0.308402 -0.161177,-0.359702 -0.178618,-1.336507 l -0.02315,-1.011105 h 4.860875 c 4.600767,0 4.865687,-0.0057 5.055732,-0.1029 0.109456,-0.05727 0.247479,-0.194168 0.305214,-0.302735 0.09232,-0.182834 0.09803,-0.765338 0.0863,-10.292392 L 30.712852,3.2512788 30.499954,3.057111 30.281041,2.8629431 H 16.000321 1.7196016 Z"
       style="display:inline;fill:none;"
       id="path4605" /><path
       id="path827"
       stroke-miterlimit="10"
       d="M 27.912747,12.816476 19.769731,5.4697971 V 15.618858 l 2.372984,-2.385776 2.57793,4.998726 h 2.209768 l -2.823504,-5.415253 h 3.805838 z"
       inkscape:connector-curvature="0"
       style="fill:none;fill-rule:evenodd;"
       inkscape:label="pointer" /></g><g
     inkscape:label="Inside"
     id="g830"
     style=""><rect
       inkscape:label="rect"
       ry="0.052499317"
       y="6.6798811"
       x="5.9811211"
       height="9.0579376"
       width="8.9383078"
       id="rect845"
       style="fill:none;fill-opacity:1;" /></g></g></svg>