<?xml version="1.0" encoding="UTF-8" standalone="no"?>
<!-- Svg Vector Icons : http://www.onlinewebfonts.com/icon -->

<svg
   xmlns:dc="http://purl.org/dc/elements/1.1/"
   xmlns:cc="http://creativecommons.org/ns#"
   xmlns:rdf="http://www.w3.org/1999/02/22-rdf-syntax-ns#"
   xmlns:svg="http://www.w3.org/2000/svg"
   xmlns="http://www.w3.org/2000/svg"
   xmlns:sodipodi="http://sodipodi.sourceforge.net/DTD/sodipodi-0.dtd"
   xmlns:inkscape="http://www.inkscape.org/namespaces/inkscape"
   version="1.1"
   x="0px"
   y="0px"
   viewBox="0 0 32 32"
   enable-background="new 0 0 1000 1000"
   xml:space="preserve"
   id="svg18"
   sodipodi:docname="wm_draw_oval.svg"
   inkscape:version="0.92.4 (5da689c313, 2019-01-14)"
   width="32"
   height="32"><defs
   id="defs22" /><sodipodi:namedview
   pagecolor="#ffffff"
   bordercolor="#666666"
   borderopacity="1"
   objecttolerance="10"
   gridtolerance="10"
   guidetolerance="10"
   inkscape:pageopacity="0"
   inkscape:pageshadow="2"
   inkscape:window-width="2560"
   inkscape:window-height="1417"
   id="namedview20"
   showgrid="false"
   inkscape:zoom="30.208"
   inkscape:cx="13.160509"
   inkscape:cy="11.493767"
   inkscape:window-x="-8"
   inkscape:window-y="-8"
   inkscape:window-maximized="1"
   inkscape:current-layer="svg18" />
<metadata
   id="metadata2"> Svg Vector Icons : http://www.onlinewebfonts.com/icon <rdf:RDF><cc:Work
     rdf:about=""><dc:format>image/svg+xml</dc:format><dc:type
       rdf:resource="http://purl.org/dc/dcmitype/StillImage" /><dc:title /></cc:Work></rdf:RDF></metadata>

<g
   id="g837"
   style=""><g
     inkscape:label="Outside"
     id="g827"
     style=""><path
       inkscape:label="Monitor"
       inkscape:connector-curvature="0"
       d="M 11.636147,23.947074 H 20.3636 M 1.4949549,20.21139 H 30.501849 M 1.6917586,3.2279636 1.4813692,3.4195728 1.464455,13.418573 c -0.011276,9.942489 -0.011276,9.993114 0.1023756,10.179131 0.2216656,0.360849 0.022849,0.34937 5.2846625,0.34937 h 4.7846539 l -0.02285,1.003374 c -0.01691,0.958046 -0.02285,1.008965 -0.176264,1.313303 -0.363805,0.738475 -0.937702,1.138471 -1.8240679,1.268271 -0.4546076,0.0677 -0.5341341,0.09595 -0.6706352,0.24812 -0.3011921,0.327002 -0.2783431,0.726997 0.045402,1.008966 l 0.1988164,0.174832 h 6.8131757 6.813473 l 0.198816,-0.174832 c 0.323745,-0.281969 0.346594,-0.681964 0.0454,-1.008966 -0.136501,-0.152169 -0.216028,-0.180424 -0.670635,-0.24812 -0.886366,-0.129506 -1.460263,-0.529796 -1.824068,-1.268271 -0.153415,-0.304338 -0.159053,-0.354963 -0.176264,-1.318896 L 20.3636,23.947074 h 4.79682 c 4.540139,0 4.801568,-0.0056 4.989108,-0.101544 0.108014,-0.05651 0.244218,-0.191609 0.301193,-0.298745 0.0911,-0.180425 0.09674,-0.755253 0.08516,-10.156762 L 30.518971,3.4192785 30.308878,3.2276692 30.092851,3.03606 H 16.000319 1.9077862 Z"
       style="fill:none;"
       id="path4605" /><path
       inkscape:label="Pointer"
       id="path827"
       stroke-miterlimit="10"
       d="M 27.755765,12.858428 19.720056,5.6085618 V 15.623881 l 2.341713,-2.354337 2.543959,4.932855 h 2.180648 l -2.786297,-5.343893 h 3.755686 z"
       inkscape:connector-curvature="0"
       style="fill:none;fill-rule:evenodd;" /></g><g
     inkscape:label="Inside"
     id="g830"
     style=""><ellipse
       inkscape:label="Oval"
       ry="3.4959772"
       rx="6.4493952"
       cy="10.992478"
       cx="10.640144"
       id="path843"
       style="fill:none;fill-opacity:1;" /></g></g></svg>