<?xml version="1.0" encoding="UTF-8" standalone="no"?>
<!-- Svg Vector Icons : http://www.onlinewebfonts.com/icon -->

<svg
   xmlns:dc="http://purl.org/dc/elements/1.1/"
   xmlns:cc="http://creativecommons.org/ns#"
   xmlns:rdf="http://www.w3.org/1999/02/22-rdf-syntax-ns#"
   xmlns:svg="http://www.w3.org/2000/svg"
   xmlns="http://www.w3.org/2000/svg"
   xmlns:sodipodi="http://sodipodi.sourceforge.net/DTD/sodipodi-0.dtd"
   xmlns:inkscape="http://www.inkscape.org/namespaces/inkscape"
   version="1.1"
   x="0px"
   y="0px"
   viewBox="0 0 32 32"
   enable-background="new 0 0 1000 1000"
   xml:space="preserve"
   id="svg18"
   sodipodi:docname="wm_draw_rect.svg"
   inkscape:version="0.92.4 (5da689c313, 2019-01-14)"
   width="32"
   height="32"><defs
   id="defs22" /><sodipodi:namedview
   pagecolor="#ffffff"
   bordercolor="#666666"
   borderopacity="1"
   objecttolerance="10"
   gridtolerance="10"
   guidetolerance="10"
   inkscape:pageopacity="0"
   inkscape:pageshadow="2"
   inkscape:window-width="2560"
   inkscape:window-height="1417"
   id="namedview20"
   showgrid="false"
   inkscape:zoom="21.360282"
   inkscape:cx="23.969987"
   inkscape:cy="19.20528"
   inkscape:window-x="-8"
   inkscape:window-y="-8"
   inkscape:window-maximized="1"
   inkscape:current-layer="g837" />
<metadata
   id="metadata2"> Svg Vector Icons : http://www.onlinewebfonts.com/icon <rdf:RDF><cc:Work
     rdf:about=""><dc:format>image/svg+xml</dc:format><dc:type
       rdf:resource="http://purl.org/dc/dcmitype/StillImage" /><dc:title /></cc:Work></rdf:RDF></metadata>

<g
   id="g837"><g
     id="g827"
     inkscape:label="Outside"><path
       inkscape:label="Monitor"
       inkscape:connector-curvature="0"
       d="m 11.556794,24.091583 h 8.886151 M 1.231196,20.287969 H 30.765547 M 1.4315784,2.9957189 1.2173633,3.1908123 1.2001415,13.371633 c -0.011481,10.123282 -0.011481,10.174827 0.1042372,10.364226 0.2256964,0.367411 0.023265,0.355724 5.380758,0.355724 h 4.8716573 l -0.02327,1.021618 c -0.01722,0.975467 -0.02326,1.027312 -0.179469,1.337184 -0.37042,0.751904 -0.954753,1.159173 -1.8572362,1.291333 -0.4628741,0.06893 -0.5438467,0.0977 -0.6828299,0.252633 -0.3066689,0.332947 -0.2834045,0.740216 0.046227,1.027312 l 0.2024316,0.178011 h 6.9370665 6.937367 l 0.202432,-0.178011 c 0.329631,-0.287096 0.352896,-0.694365 0.04623,-1.027312 -0.138983,-0.154937 -0.219956,-0.183706 -0.68283,-0.252633 -0.902483,-0.131861 -1.486816,-0.539429 -1.857236,-1.291333 -0.156205,-0.309872 -0.161945,-0.361417 -0.179469,-1.342878 l -0.02326,-1.015924 h 4.884045 c 4.622696,0 4.888879,-0.0057 5.07983,-0.103391 0.109977,-0.05754 0.248658,-0.195093 0.306669,-0.304178 0.09276,-0.183705 0.0985,-0.768986 0.08671,-10.34145 L 30.78298,3.1905127 30.569067,2.9954193 30.349111,2.8003259 H 16.000323 1.6515341 Z"
       style="fill:none"
       id="path4605" /><path
       id="path827"
       stroke-miterlimit="10"
       d="M 27.969529,12.801302 19.787699,5.4196055 V 15.617041 l 2.384295,-2.397147 2.590218,5.022552 h 2.220301 L 24.14555,12.801381 h 3.823979 z"
       inkscape:connector-curvature="0"
       style="fill:none;fill-rule:evenodd;stroke-miterlimit:10"
       inkscape:label="Pointer" /></g><g
     id="g830"
     inkscape:label="Inside"><rect
       inkscape:label="rect"
       ry="0.067236438"
       y="5.4220419"
       x="8.6171722"
       height="11.600597"
       width="6.632309"
       id="rect845"
       style="fill:none;fill-opacity:1" /></g></g></svg>