<?xml version="1.0" encoding="UTF-8" standalone="no"?>
<!-- Svg Vector Icons : http://www.onlinewebfonts.com/icon -->

<svg
   xmlns:dc="http://purl.org/dc/elements/1.1/"
   xmlns:cc="http://creativecommons.org/ns#"
   xmlns:rdf="http://www.w3.org/1999/02/22-rdf-syntax-ns#"
   xmlns:svg="http://www.w3.org/2000/svg"
   xmlns="http://www.w3.org/2000/svg"
   xmlns:sodipodi="http://sodipodi.sourceforge.net/DTD/sodipodi-0.dtd"
   xmlns:inkscape="http://www.inkscape.org/namespaces/inkscape"
   version="1.1"
   x="0px"
   y="0px"
   viewBox="0 0 32 32"
   enable-background="new 0 0 1000 1000"
   xml:space="preserve"
   id="svg18"
   sodipodi:docname="wm_filter_states.svg"
   inkscape:version="0.92.4 (5da689c313, 2019-01-14)"
   width="32"
   height="32"><defs
   id="defs22" /><sodipodi:namedview
   pagecolor="#ffffff"
   bordercolor="#666666"
   borderopacity="1"
   objecttolerance="10"
   gridtolerance="10"
   guidetolerance="10"
   inkscape:pageopacity="0"
   inkscape:pageshadow="2"
   inkscape:window-width="2560"
   inkscape:window-height="1417"
   id="namedview20"
   showgrid="false"
   inkscape:zoom="13.957997"
   inkscape:cx="6.4229726"
   inkscape:cy="14.331798"
   inkscape:window-x="-8"
   inkscape:window-y="-8"
   inkscape:window-maximized="1"
   inkscape:current-layer="svg18"
   inkscape:snap-global="true" />
<metadata
   id="metadata2"> Svg Vector Icons : http://www.onlinewebfonts.com/icon <rdf:RDF><cc:Work
     rdf:about=""><dc:format>image/svg+xml</dc:format><dc:type
       rdf:resource="http://purl.org/dc/dcmitype/StillImage" /><dc:title></dc:title></cc:Work></rdf:RDF></metadata>

<g
   id="g873"
   inkscape:label="State2"
   style="display:inline"><g
     inkscape:label="Outside"
     id="g864"><path
       sodipodi:nodetypes="ccccccccccscccccccccccccccscccccccc"
       id="path861"
       style="display:inline;fill:none;fill-opacity:1"
       d="M 17.673078,27.737667 H 23.99305 M 10.329348,25.036714 H 31.334649 M 12.30232,12.635251 l -1.674021,-0.01655 -0.156436,0.138754 -0.152353,0.138531 -0.01225,7.22943 c -0.0082,7.188562 -0.0082,7.225164 0.07414,7.359658 0.160519,0.260899 0.01654,0.252595 3.826881,0.252595 h 3.4648 l -0.01654,0.725458 c -0.01225,0.692678 -0.01655,0.729495 -0.127643,0.949533 -0.263448,0.533932 -0.679035,0.823129 -1.320895,0.916984 -0.329203,0.04899 -0.386793,0.06932 -0.485639,0.179393 -0.218108,0.236431 -0.201563,0.525628 0.03287,0.729495 l 0.143973,0.126405 h 4.933751 4.933967 l 0.143972,-0.126405 c 0.234439,-0.203867 0.250985,-0.493064 0.03287,-0.729495 -0.09885,-0.110019 -0.156435,-0.13045 -0.48564,-0.179393 C 24.816267,30.236002 24.40068,29.94659 24.137232,29.412658 24.026136,29.19262 24.022053,29.156019 24.00959,28.45908 l -0.01654,-0.721413 h 3.473611 c 3.287736,0 3.477049,-0.0036 3.612856,-0.07343 0.07822,-0.0408 0.176849,-0.138532 0.218107,-0.215994 0.06597,-0.130457 0.07005,-0.546066 0.06168,-7.343487 L 31.347049,12.895769 31.19491,12.757237 31.038475,12.618699 H 20.833386 l -4.324603,-0.0331"
       inkscape:connector-curvature="0"
       inkscape:label="Monitor filter gap" /></g><g
     inkscape:label="Inside"
     id="g867"><path
       style="display:inline;fill:none"
       d="m 13.545082,2.8270059 -8.982073,8.9820721 0.626266,0.626267 7.205516,0.195808 4.996025,5.081161 0.847497,-3.381027 -3.857228,-3.857228 -0.238204,-7.0492538 z"
       id="path840"
       inkscape:connector-curvature="0"
       sodipodi:nodetypes="ccccccccc"
       inkscape:label="Filter In" /></g></g><g
   id="g899"
   inkscape:label="State1"
   style="display:inline"><g
     inkscape:label="Outside"
     id="g889"><path
       sodipodi:nodetypes="ccccccccccscccccccccccccccsccccccc"
       id="path849"
       style="display:inline;fill:none;fill-opacity:1"
       d="M 17.673078,27.737667 H 23.99305 M 10.329348,25.036714 H 31.334649 M 12.30232,12.635251 l -1.674021,-0.01655 -0.156436,0.138754 -0.152353,0.138531 -0.01225,7.22943 c -0.0082,7.188562 -0.0082,7.225164 0.07414,7.359658 0.160519,0.260899 0.01654,0.252595 3.826881,0.252595 h 3.4648 l -0.01654,0.725458 c -0.01225,0.692678 -0.01655,0.729495 -0.127643,0.949533 -0.263448,0.533932 -0.679035,0.823129 -1.320895,0.916984 -0.329203,0.04899 -0.386793,0.06932 -0.485639,0.179393 -0.218108,0.236431 -0.201563,0.525628 0.03287,0.729495 l 0.143973,0.126405 h 4.933751 4.933967 l 0.143972,-0.126405 c 0.234439,-0.203867 0.250985,-0.493064 0.03287,-0.729495 -0.09885,-0.110019 -0.156435,-0.13045 -0.48564,-0.179393 C 24.816267,30.236002 24.40068,29.94659 24.137232,29.412658 24.026136,29.19262 24.022053,29.156019 24.00959,28.45908 l -0.01654,-0.721413 h 3.473611 c 3.287736,0 3.477049,-0.0036 3.612856,-0.07343 0.07822,-0.0408 0.176849,-0.138532 0.218107,-0.215994 0.06597,-0.130457 0.07005,-0.546066 0.06168,-7.343487 l -0.01226,-7.208987 -0.152139,-0.138532 -0.156435,-0.138538 h -7.045018"
       inkscape:connector-curvature="0"
       inkscape:label="Monitor unfiltered gap" /></g><g
     inkscape:label="Inside"
     id="g892"><path
       inkscape:label="Filter None"
       sodipodi:nodetypes="cccc"
       inkscape:connector-curvature="0"
       id="path851"
       d="m 23.99275,13.117537 -1e-6,-7.9709732 m -11.703928,0.00552 -1e-6,7.9782742"
       style="display:inline;fill:none" /></g></g><g
   id="g885"
   inkscape:label="State0"
   style="display:inline"><g
     inkscape:label="Outside"
     id="g876"><path
       inkscape:label="Monitor no gap"
       inkscape:connector-curvature="0"
       d="M 17.673078,27.737667 H 23.99305 M 10.329348,25.036714 H 31.334649 M 12.30232,12.635251 l -1.674021,-0.01655 -0.156436,0.138754 -0.152353,0.138531 -0.01225,7.22943 c -0.0082,7.188562 -0.0082,7.225164 0.07414,7.359658 0.160519,0.260899 0.01654,0.252595 3.826881,0.252595 h 3.4648 l -0.01654,0.725458 c -0.01225,0.692678 -0.01655,0.729495 -0.127643,0.949533 -0.263448,0.533932 -0.679035,0.823129 -1.320895,0.916984 -0.329203,0.04899 -0.386793,0.06932 -0.485639,0.179393 -0.218108,0.236431 -0.201563,0.525628 0.03287,0.729495 l 0.143973,0.126405 h 4.933751 4.933967 l 0.143972,-0.126405 c 0.234439,-0.203867 0.250985,-0.493064 0.03287,-0.729495 -0.09885,-0.110019 -0.156435,-0.13045 -0.48564,-0.179393 C 24.816267,30.236002 24.40068,29.94659 24.137232,29.412658 24.026136,29.19262 24.022053,29.156019 24.00959,28.45908 l -0.01654,-0.721413 h 3.473611 c 3.287736,0 3.477049,-0.0036 3.612856,-0.07343 0.07822,-0.0408 0.176849,-0.138532 0.218107,-0.215994 0.06597,-0.130457 0.07005,-0.546066 0.06168,-7.343487 L 31.347049,12.895769 31.19491,12.757237 31.038475,12.618699 H 20.833386 l -4.324603,-0.0331 z"
       style="display:inline;fill:none;fill-opacity:1"
       id="path4605"
       sodipodi:nodetypes="ccccccccccscccccccccccccccsccccccccc" /></g><g
     inkscape:label="Inside"
     id="g879"><path
       inkscape:label="Filter Out"
       sodipodi:nodetypes="ccccccccc"
       inkscape:connector-curvature="0"
       id="path832"
       d="m 9.5824913,2.830803 8.8398807,9.122049 -0.636025,0.616353 -7.207704,0.0826 -5.0752198,5.00206 -0.7942858,-3.393921 3.9173393,-3.796167 0.3488995,-7.0446423 z"
       style="display:inline;fill:none" /></g></g></svg>