<?xml version="1.0" encoding="UTF-8" standalone="no"?>
<!-- Svg Vector Icons : http://www.onlinewebfonts.com/icon -->

<svg
   xmlns:dc="http://purl.org/dc/elements/1.1/"
   xmlns:cc="http://creativecommons.org/ns#"
   xmlns:rdf="http://www.w3.org/1999/02/22-rdf-syntax-ns#"
   xmlns:svg="http://www.w3.org/2000/svg"
   xmlns="http://www.w3.org/2000/svg"
   xmlns:sodipodi="http://sodipodi.sourceforge.net/DTD/sodipodi-0.dtd"
   xmlns:inkscape="http://www.inkscape.org/namespaces/inkscape"
   version="1.1"
   x="0px"
   y="0px"
   viewBox="0 0 32 32"
   enable-background="new 0 0 1000 1000"
   xml:space="preserve"
   id="svg18"
   sodipodi:docname="wm_loadsvg.svg"
   inkscape:version="0.92.4 (5da689c313, 2019-01-14)"
   width="32"
   height="32"><defs
   id="defs22" /><sodipodi:namedview
   pagecolor="#ffffff"
   bordercolor="#666666"
   borderopacity="1"
   objecttolerance="10"
   gridtolerance="10"
   guidetolerance="10"
   inkscape:pageopacity="0"
   inkscape:pageshadow="2"
   inkscape:window-width="2560"
   inkscape:window-height="1417"
   id="namedview20"
   showgrid="false"
   inkscape:zoom="30.208"
   inkscape:cx="11.151888"
   inkscape:cy="16.666635"
   inkscape:window-x="-8"
   inkscape:window-y="-8"
   inkscape:window-maximized="1"
   inkscape:current-layer="g837" />
<metadata
   id="metadata2"> Svg Vector Icons : http://www.onlinewebfonts.com/icon <rdf:RDF><cc:Work
     rdf:about=""><dc:format>image/svg+xml</dc:format><dc:type
       rdf:resource="http://purl.org/dc/dcmitype/StillImage" /><dc:title /></cc:Work></rdf:RDF></metadata>

<g
   id="g850"
   style=""><g
     inkscape:label="Outside"
     id="g840"
     style=""><path
       inkscape:label="Monitor"
       inkscape:connector-curvature="0"
       d="m 11.582659,23.338301 h 8.834423 M 1.3171684,19.556829 H 30.679593 M 1.5163843,2.3652407 1.3034162,2.5591984 1.2862947,12.680754 c -0.011414,10.064352 -0.011414,10.115598 0.1036304,10.303894 0.2243825,0.365273 0.023129,0.353653 5.3494354,0.353653 h 4.8432985 l -0.02313,1.015671 c -0.01712,0.969789 -0.02313,1.021332 -0.178425,1.329401 -0.368264,0.747526 -0.949195,1.152424 -1.8464248,1.283815 -0.4601796,0.06853 -0.5406808,0.09713 -0.6788549,0.251162 -0.3048838,0.331009 -0.2817548,0.735907 0.045958,1.021332 l 0.2012532,0.176975 h 6.8966835 6.896984 l 0.201254,-0.176975 c 0.327712,-0.285425 0.350841,-0.690323 0.04596,-1.021332 -0.138174,-0.154034 -0.218675,-0.182636 -0.678854,-0.251162 -0.89723,-0.131093 -1.478162,-0.536289 -1.846425,-1.283815 -0.155296,-0.308069 -0.161003,-0.359314 -0.178425,-1.335062 l -0.02313,-1.01001 h 4.855614 c 4.595786,0 4.860419,-0.0057 5.050258,-0.102789 0.109338,-0.0572 0.247212,-0.193957 0.304884,-0.302407 0.09222,-0.182636 0.09792,-0.764509 0.08621,-10.281251 L 30.696925,2.5589006 30.484258,2.3649429 30.265582,2.1709852 H 16.000321 1.7350597 Z"
       style="fill:none;"
       id="path4605" /></g><g
     inkscape:label="Inside"
     id="g837"
     style=""><path
       inkscape:label="Arrow"
       sodipodi:nodetypes="ccccc"
       inkscape:connector-curvature="0"
       d="M 16.065196,5.6300454 V 13.408062 M 12.346758,7.6295941 16.028373,5.1881662 19.605514,7.6144395"
       style="fill:none;"
       id="path4598" /><path
       inkscape:label="File"
       inkscape:connector-curvature="0"
       d="m 18.413087,13.389599 c 6.167397,4.262628 6.167397,4.262628 6.167397,4.262628 m 0.03767,11.064711 -0.02145,0.485619 c -0.01622,0.455966 -0.02145,0.489232 -0.144917,0.555948 -0.123468,0.07051 -0.332476,0.07051 -8.32888,0.07051 H 7.9229927 L 7.7942936,29.736266 7.6601,29.647315 V 21.60732 c 0,-7.861913 0,-8.043432 0.1020174,-8.128767 l 0.1020224,-0.08895 h 5.2772212 5.271726 l 0.01596,2.120193 0.01072,2.123992 3.073106,0.0074 3.06761,0.01103 0.01622,1.02674 0.01072,1.030538 0.01072,9.007433"
       style="display:inline;fill:#ffffff;fill-opacity:1;"
       id="path4571" /><path
       inkscape:label="G"
       sodipodi:nodetypes="cccccc"
       inkscape:connector-curvature="0"
       id="path4614"
       d="m 22.478911,22.024806 c -0.361319,-2.775259 -3.66444,-2.366279 -3.559505,1.821531 0.09879,2.537658 1.021362,3.736061 2.105623,3.760041 0.90297,-0.04628 1.492649,-0.694764 1.520728,-1.403749 l -0.03342,-1.804819 h -1.270058"
       style="fill:none;stroke:#000000;stroke-opacity:1" /><path
       inkscape:label="V"
       sodipodi:nodetypes="ccc"
       inkscape:connector-curvature="0"
       id="path4610"
       d="m 14.167918,20.353677 1.74633,7.11901 1.721263,-7.110654"
       style="fill:none;stroke:#000000;stroke-opacity:1" /><path
       inkscape:label="S"
       sodipodi:nodetypes="cccccc"
       inkscape:connector-curvature="0"
       id="path4612"
       d="m 12.602806,21.74907 c -0.273316,-1.800494 -2.428349,-2.131468 -2.6821627,0.02507 -0.1143822,1.145282 0.1091757,1.394522 1.0277447,1.813175 l 0.65174,0.309159 c 1.453122,0.542973 1.886337,3.625006 -0.618318,3.534438 -1.0388432,-0.08921 -1.2709166,-1.190355 -1.3201919,-1.829886"
       style="fill:none;stroke:#000000;stroke-opacity:1" /></g></g></svg>