<?xml version="1.0" encoding="UTF-8" standalone="no"?>
<!-- Svg Vector Icons : http://www.onlinewebfonts.com/icon -->

<svg
   xmlns:dc="http://purl.org/dc/elements/1.1/"
   xmlns:cc="http://creativecommons.org/ns#"
   xmlns:rdf="http://www.w3.org/1999/02/22-rdf-syntax-ns#"
   xmlns:svg="http://www.w3.org/2000/svg"
   xmlns="http://www.w3.org/2000/svg"
   xmlns:sodipodi="http://sodipodi.sourceforge.net/DTD/sodipodi-0.dtd"
   xmlns:inkscape="http://www.inkscape.org/namespaces/inkscape"
   version="1.1"
   x="0px"
   y="0px"
   viewBox="0 0 32 32"
   enable-background="new 0 0 1000 1000"
   xml:space="preserve"
   id="svg18"
   sodipodi:docname="wm_next.svg"
   inkscape:version="0.92.4 (5da689c313, 2019-01-14)"
   width="32"
   height="32"><defs
   id="defs22" /><sodipodi:namedview
   pagecolor="#ffffff"
   bordercolor="#666666"
   borderopacity="1"
   objecttolerance="10"
   gridtolerance="10"
   guidetolerance="10"
   inkscape:pageopacity="0"
   inkscape:pageshadow="2"
   inkscape:window-width="2560"
   inkscape:window-height="1417"
   id="namedview20"
   showgrid="false"
   inkscape:zoom="30.208"
   inkscape:cx="13.943737"
   inkscape:cy="17.538567"
   inkscape:window-x="-8"
   inkscape:window-y="-8"
   inkscape:window-maximized="1"
   inkscape:current-layer="g845" />
<metadata
   id="metadata2"> Svg Vector Icons : http://www.onlinewebfonts.com/icon <rdf:RDF><cc:Work
     rdf:about=""><dc:format>image/svg+xml</dc:format><dc:type
       rdf:resource="http://purl.org/dc/dcmitype/StillImage" /><dc:title></dc:title></cc:Work></rdf:RDF></metadata>

<g
   id="g845"><g
     id="g836"
     inkscape:label="Outside"><path
       inkscape:label="Monitor"
       inkscape:connector-curvature="0"
       d="m 11.567518,24.072052 h 8.864704 M 1.2668433,20.277619 H 30.729907 M 1.4667421,3.0271073 1.253044,3.2217298 1.2358638,13.377977 c -0.011454,10.098847 -0.011454,10.150268 0.1039856,10.339211 0.2251516,0.366524 0.023208,0.354864 5.3677705,0.354864 h 4.8598981 l -0.02321,1.019153 c -0.01718,0.973112 -0.02321,1.024832 -0.179036,1.333956 -0.369526,0.750089 -0.952449,1.156375 -1.8527535,1.288216 -0.4617569,0.06876 -0.542534,0.09746 -0.6811817,0.252023 -0.3059288,0.332144 -0.2827205,0.73843 0.046116,1.024833 l 0.201943,0.177581 h 6.9203212 6.920623 l 0.201944,-0.177581 C 23.451121,28.70383 23.47433,28.297544 23.168401,27.9654 23.029753,27.810838 22.948976,27.782138 22.487219,27.713377 21.586915,27.581835 21.003992,27.17525 20.634466,26.425161 20.478638,26.116037 20.472911,26.064616 20.45543,25.085524 l -0.02321,-1.013472 h 4.872256 c 4.611538,0 4.877078,-0.0057 5.067568,-0.103141 0.109712,-0.0574 0.248059,-0.194622 0.305929,-0.303444 0.09253,-0.183262 0.09826,-0.767129 0.0865,-10.316489 L 30.747299,3.2214309 30.533902,3.0268084 30.314477,2.8321859 H 16.000322 1.6861669 Z"
       style="fill:none;"
       id="path4605" /></g><g
     id="g839"
     inkscape:label="Inside"><path
       inkscape:label="Arrows"
       inkscape:connector-curvature="0"
       d="m 14.961885,9.0806152 c 6.667828,2.6301608 6.609152,2.6409828 0.0027,5.2537968 m 1.624504,-7.8112552 c -0.87474,0.016148 -1.635276,0.492388 -1.632853,1.5156775 -0.0016,0.496925 0.0027,0.092904 0.0057,1.0417809 C 14.480788,8.886082 13.939082,8.6700498 13.324703,8.426225 10.874255,7.4565833 8.7515801,6.6573368 8.6071945,6.6573368 7.7324537,6.6734845 6.9719183,7.1497247 6.9743415,8.1730143 c -0.00237,0.733208 0.00835,-0.7391144 0.00835,3.5432797 v 3.983229 c 0.00116,0.684318 0.6890636,1.218784 1.5588994,1.218502 3.5371151,-1.412775 -0.2355146,0.09197 4.6653841,-1.874005 0.615016,-0.246713 1.208752,-0.486561 1.757572,-0.709608 v 1.230993 c 0.0012,0.684318 0.689064,1.218785 1.558898,1.218503 3.537115,-1.412777 -0.235513,0.0919 4.665384,-1.874068 2.384756,-0.95664 4.481436,-1.821559 4.664827,-1.926256 0.485163,-0.288087 0.773235,-0.838954 0.773235,-1.467818 0,-1.048335 -0.301049,-1.231748 -5.32033,-3.2237213 C 18.85611,7.3224031 16.733435,6.5231568 16.589049,6.5231568 Z"
       style="display:inline;fill:none;"
       id="path5182" /></g></g></svg>