<?xml version="1.0" encoding="UTF-8" standalone="no"?>
<!-- Svg Vector Icons : http://www.onlinewebfonts.com/icon -->

<svg
   xmlns:dc="http://purl.org/dc/elements/1.1/"
   xmlns:cc="http://creativecommons.org/ns#"
   xmlns:rdf="http://www.w3.org/1999/02/22-rdf-syntax-ns#"
   xmlns:svg="http://www.w3.org/2000/svg"
   xmlns="http://www.w3.org/2000/svg"
   xmlns:sodipodi="http://sodipodi.sourceforge.net/DTD/sodipodi-0.dtd"
   xmlns:inkscape="http://www.inkscape.org/namespaces/inkscape"
   version="1.1"
   x="0px"
   y="0px"
   viewBox="0 0 32 32"
   enable-background="new 0 0 1000 1000"
   xml:space="preserve"
   id="svg18"
   sodipodi:docname="wm_play_pause.svg"
   inkscape:version="0.92.4 (5da689c313, 2019-01-14)"
   width="32"
   height="32"><defs
   id="defs22" /><sodipodi:namedview
   pagecolor="#ffffff"
   bordercolor="#666666"
   borderopacity="1"
   objecttolerance="10"
   gridtolerance="10"
   guidetolerance="10"
   inkscape:pageopacity="0"
   inkscape:pageshadow="2"
   inkscape:window-width="2560"
   inkscape:window-height="1417"
   id="namedview20"
   showgrid="false"
   inkscape:zoom="30.208"
   inkscape:cx="13.943737"
   inkscape:cy="17.538567"
   inkscape:window-x="-8"
   inkscape:window-y="-8"
   inkscape:window-maximized="1"
   inkscape:current-layer="g1499" />
<metadata
   id="metadata2"> Svg Vector Icons : http://www.onlinewebfonts.com/icon <rdf:RDF><cc:Work
     rdf:about=""><dc:format>image/svg+xml</dc:format><dc:type
       rdf:resource="http://purl.org/dc/dcmitype/StillImage" /><dc:title></dc:title></cc:Work></rdf:RDF></metadata>

<g
   id="g934"
   inkscape:label="State1"><g
     id="g1508"
     inkscape:label="Outside"><path
       inkscape:label="Monitor"
       inkscape:connector-curvature="0"
       d="m 11.567518,24.072052 h 8.864704 M 1.2668433,20.277619 H 30.729907 M 1.4667421,3.0271073 1.253044,3.2217298 1.2358638,13.377977 c -0.011454,10.098847 -0.011454,10.150268 0.1039856,10.339211 0.2251516,0.366524 0.023208,0.354864 5.3677705,0.354864 h 4.8598981 l -0.02321,1.019153 c -0.01718,0.973112 -0.02321,1.024832 -0.179036,1.333956 -0.369526,0.750089 -0.952449,1.156375 -1.8527535,1.288216 -0.4617569,0.06876 -0.542534,0.09746 -0.6811817,0.252023 -0.3059288,0.332144 -0.2827205,0.73843 0.046116,1.024833 l 0.201943,0.177581 h 6.9203212 6.920623 l 0.201944,-0.177581 C 23.451121,28.70383 23.47433,28.297544 23.168401,27.9654 23.029753,27.810838 22.948976,27.782138 22.487219,27.713377 21.586915,27.581835 21.003992,27.17525 20.634466,26.425161 20.478638,26.116037 20.472911,26.064616 20.45543,25.085524 l -0.02321,-1.013472 h 4.872256 c 4.611538,0 4.877078,-0.0057 5.067568,-0.103141 0.109712,-0.0574 0.248059,-0.194622 0.305929,-0.303444 0.09253,-0.183262 0.09826,-0.767129 0.0865,-10.316489 L 30.747299,3.2214309 30.533902,3.0268084 30.314477,2.8321859 H 16.000322 1.6861669 Z"
       style="fill:none;"
       id="path4605" /></g><g
     id="g1505"
     inkscape:label="Inside"><path
       style="fill:none;"
       d="M 18.251059,6.223065 V 17.41783 m -4.502118,0 V 6.1558292"
       id="path924"
       inkscape:connector-curvature="0"
       sodipodi:nodetypes="cccc"
       inkscape:label="Lines" /></g></g><g
   id="g930"
   inkscape:label="State0"><g
     id="g1502"
     inkscape:label="Inside"><path
       inkscape:label="Arrow"
       inkscape:connector-curvature="0"
       d="m 11.084034,16.918025 c -0.869836,2.82e-4 -1.5577394,-0.534184 -1.5588994,-1.218502 v -3.983229 c 0,-4.2823941 -0.01072,-2.8100717 -0.00835,-3.5432797 -0.00242,-1.0232896 0.7581124,-1.4995298 1.6328534,-1.5156775 l 6.35469,2.4232784 c 6.667828,2.6301608 6.609152,2.6409828 0.0027,5.2537968 -4.686794,1.890381 -5.447117,2.193808 -6.422994,2.583613 z"
       style="display:inline;fill:none;"
       id="path5182"
       sodipodi:nodetypes="ccsccccc" /></g><g
     id="g1499"
     inkscape:label="Outside"><path
       id="path926"
       style="fill:none;"
       d="m 11.567518,24.072052 h 8.864704 M 1.2668433,20.277619 H 30.729907 M 1.4667421,3.0271073 1.253044,3.2217298 1.2358638,13.377977 c -0.011454,10.098847 -0.011454,10.150268 0.1039856,10.339211 0.2251516,0.366524 0.023208,0.354864 5.3677705,0.354864 h 4.8598981 l -0.02321,1.019153 c -0.01718,0.973112 -0.02321,1.024832 -0.179036,1.333956 -0.369526,0.750089 -0.952449,1.156375 -1.8527535,1.288216 -0.4617569,0.06876 -0.542534,0.09746 -0.6811817,0.252023 -0.3059288,0.332144 -0.2827205,0.73843 0.046116,1.024833 l 0.201943,0.177581 h 6.9203212 6.920623 l 0.201944,-0.177581 C 23.451121,28.70383 23.47433,28.297544 23.168401,27.9654 23.029753,27.810838 22.948976,27.782138 22.487219,27.713377 21.586915,27.581835 21.003992,27.17525 20.634466,26.425161 20.478638,26.116037 20.472911,26.064616 20.45543,25.085524 l -0.02321,-1.013472 h 4.872256 c 4.611538,0 4.877078,-0.0057 5.067568,-0.103141 0.109712,-0.0574 0.248059,-0.194622 0.305929,-0.303444 0.09253,-0.183262 0.09826,-0.767129 0.0865,-10.316489 L 30.747299,3.2214309 30.533902,3.0268084 30.314477,2.8321859 H 16.000322 1.6861669 Z"
       inkscape:connector-curvature="0"
       inkscape:label="Monitor" /></g></g></svg>