<?xml version="1.0" encoding="UTF-8" standalone="no"?>
<!-- Svg Vector Icons : http://www.onlinewebfonts.com/icon -->

<svg
   xmlns:dc="http://purl.org/dc/elements/1.1/"
   xmlns:cc="http://creativecommons.org/ns#"
   xmlns:rdf="http://www.w3.org/1999/02/22-rdf-syntax-ns#"
   xmlns:svg="http://www.w3.org/2000/svg"
   xmlns="http://www.w3.org/2000/svg"
   xmlns:sodipodi="http://sodipodi.sourceforge.net/DTD/sodipodi-0.dtd"
   xmlns:inkscape="http://www.inkscape.org/namespaces/inkscape"
   version="1.1"
   x="0px"
   y="0px"
   viewBox="0 0 32 32"
   enable-background="new 0 0 1000 1000"
   xml:space="preserve"
   id="svg18"
   sodipodi:docname="wm_supply.svg"
   inkscape:version="0.92.4 (5da689c313, 2019-01-14)"
   width="32"
   height="32"><title
   id="title827">Supply Monitor Icon</title><defs
   id="defs22"><linearGradient
     gradientUnits="userSpaceOnUse"
     gradientTransform="scale(0.7939,1.2596)"
     y2="44.993"
     y1="6.7414"
     x2="47.308"
     x1="7.8359"
     id="a"><stop
       id="stop997"
       offset="0"
       stop-color="#adb8cf" /><stop
       id="stop999"
       offset="1"
       stop-color="#59617a" /></linearGradient></defs><sodipodi:namedview
   pagecolor="#ffffff"
   bordercolor="#666666"
   borderopacity="1"
   objecttolerance="10"
   gridtolerance="10"
   guidetolerance="10"
   inkscape:pageopacity="0"
   inkscape:pageshadow="2"
   inkscape:window-width="2560"
   inkscape:window-height="1417"
   id="namedview20"
   showgrid="false"
   inkscape:zoom="32"
   inkscape:cx="10.725528"
   inkscape:cy="14.674046"
   inkscape:window-x="-8"
   inkscape:window-y="-8"
   inkscape:window-maximized="1"
   inkscape:current-layer="svg18" />
<metadata
   id="metadata2"> Svg Vector Icons : http://www.onlinewebfonts.com/icon <rdf:RDF><cc:Work
     rdf:about=""><dc:format>image/svg+xml</dc:format><dc:type
       rdf:resource="http://purl.org/dc/dcmitype/StillImage" /><dc:title>Supply Monitor Icon</dc:title></cc:Work></rdf:RDF></metadata>

<g
   id="g1603"
   inkscape:label="State1"><g
     inkscape:label="Outside"
     id="g832"><path
       inkscape:label="Monitor"
       inkscape:connector-curvature="0"
       d="M 11.607962,23.9984 H 20.39178 M 1.4012737,20.23859 H 30.595506 M 1.5993486,3.14548 1.3876005,3.33832 1.3705735,13.40191 c -0.011344,10.0067 -0.011344,10.05765 0.1030374,10.24487 0.2230969,0.36318 0.022994,0.35162 5.318794,0.35162 h 4.8155541 l -0.02299,1.00986 c -0.01703,0.96423 -0.023,1.01548 -0.177404,1.32178 -0.366154,0.74325 -0.943757,1.14582 -1.8358471,1.27647 -0.457543,0.0682 -0.537585,0.0965 -0.674966,0.24972 -0.303137,0.32912 -0.280142,0.73169 0.04569,1.01548 l 0.200101,0.17596 h 6.8571781 6.857477 l 0.2001,-0.17596 c 0.325835,-0.28379 0.348832,-0.68636 0.04569,-1.01548 -0.137382,-0.15315 -0.217422,-0.18159 -0.674967,-0.24972 -0.89209,-0.13035 -1.469694,-0.53322 -1.835847,-1.27647 -0.154407,-0.3063 -0.160082,-0.35725 -0.177404,-1.32741 L 20.39178,23.9984 h 4.8278 c 4.569462,0 4.832579,-0.005 5.02133,-0.10221 0.10871,-0.0568 0.245794,-0.19284 0.303137,-0.30067 0.09169,-0.1816 0.09736,-0.76014 0.08572,-10.22236 L 30.612737,3.33802 30.401287,3.14518 30.183865,2.95233 H 16.000318 1.8167711 Z"
       style="fill:none;fill-opacity:1"
       id="path4605" /></g><g
     inkscape:label="Inside"
     style="fill:none"
     transform="matrix(0.23145882,0.14132309,-0.14132309,0.23145882,12.502203,5.9880418e-4)"
     id="g1025" /></g><g
   id="g874"
   inkscape:label="State0"><g
     id="g880"
     inkscape:label="Outside"><path
       id="path1605"
       style="fill:none;fill-opacity:1"
       d="M 11.607962,23.9984 H 20.39178 M 1.4012737,20.23859 H 30.595506 M 1.5993486,3.14548 1.3876005,3.33832 1.3705735,13.40191 c -0.011344,10.0067 -0.011344,10.05765 0.1030374,10.24487 0.2230969,0.36318 0.022994,0.35162 5.318794,0.35162 h 4.8155541 l -0.02299,1.00986 c -0.01703,0.96423 -0.023,1.01548 -0.177404,1.32178 -0.366154,0.74325 -0.943757,1.14582 -1.8358471,1.27647 -0.457543,0.0682 -0.537585,0.0965 -0.674966,0.24972 -0.303137,0.32912 -0.280142,0.73169 0.04569,1.01548 l 0.200101,0.17596 h 6.8571781 6.857477 l 0.2001,-0.17596 c 0.325835,-0.28379 0.348832,-0.68636 0.04569,-1.01548 -0.137382,-0.15315 -0.217422,-0.18159 -0.674967,-0.24972 -0.89209,-0.13035 -1.469694,-0.53322 -1.835847,-1.27647 -0.154407,-0.3063 -0.160082,-0.35725 -0.177404,-1.32741 L 20.39178,23.9984 h 4.8278 c 4.569462,0 4.832579,-0.005 5.02133,-0.10221 0.10871,-0.0568 0.245794,-0.19284 0.303137,-0.30067 0.09169,-0.1816 0.09736,-0.76014 0.08572,-10.22236 L 30.612737,3.33802 30.401287,3.14518 30.183865,2.95233 H 16.000318 1.8167711 Z"
       inkscape:connector-curvature="0"
       inkscape:label="Monitor" /></g><g
     id="g877"
     inkscape:label="Inside"><path
       sodipodi:nodetypes="ccccccccccccccc"
       style="display:inline;fill:none"
       inkscape:connector-curvature="0"
       d="m 28.117652,5.103602 0.06472,12.90626 -7.732092,0.04052 0.06028,-12.875012 z m -8.44265,0.03696 -0.0172,12.90594 -7.682865,-0.05488 0.168678,-12.871686 z m -8.262874,-0.03168 -0.1526,12.882461 -7.3019084,0.03987 -0.00379,-12.919205 z"
       id="path1609-1"
       inkscape:label="Film" /></g></g></svg>