<?xml version="1.0" encoding="UTF-8" standalone="no"?>
<!-- Svg Vector Icons : http://www.onlinewebfonts.com/icon -->

<svg
   xmlns:dc="http://purl.org/dc/elements/1.1/"
   xmlns:cc="http://creativecommons.org/ns#"
   xmlns:rdf="http://www.w3.org/1999/02/22-rdf-syntax-ns#"
   xmlns:svg="http://www.w3.org/2000/svg"
   xmlns="http://www.w3.org/2000/svg"
   xmlns:sodipodi="http://sodipodi.sourceforge.net/DTD/sodipodi-0.dtd"
   xmlns:inkscape="http://www.inkscape.org/namespaces/inkscape"
   version="1.1"
   x="0px"
   y="0px"
   viewBox="0 0 32 32"
   enable-background="new 0 0 1000 1000"
   xml:space="preserve"
   id="svg18"
   sodipodi:docname="wm_save.svg"
   inkscape:version="0.92.4 (5da689c313, 2019-01-14)"
   width="32"
   height="32"><defs
   id="defs22" /><sodipodi:namedview
   pagecolor="#ffffff"
   bordercolor="#666666"
   borderopacity="1"
   objecttolerance="10"
   gridtolerance="10"
   guidetolerance="10"
   inkscape:pageopacity="0"
   inkscape:pageshadow="2"
   inkscape:window-width="2560"
   inkscape:window-height="1417"
   id="namedview20"
   showgrid="false"
   inkscape:zoom="30.208"
   inkscape:cx="17.213503"
   inkscape:cy="15.817137"
   inkscape:window-x="-8"
   inkscape:window-y="-8"
   inkscape:window-maximized="1"
   inkscape:current-layer="svg18" />
<metadata
   id="metadata2"> Svg Vector Icons : http://www.onlinewebfonts.com/icon <rdf:RDF><cc:Work
     rdf:about=""><dc:format>image/svg+xml</dc:format><dc:type
       rdf:resource="http://purl.org/dc/dcmitype/StillImage" /><dc:title></dc:title></cc:Work></rdf:RDF></metadata>

<g
   id="g915"
   style=""><g
     inkscape:label="Outside"
     id="g909"
     style=""><path
       inkscape:label="Monitor"
       inkscape:connector-curvature="0"
       d="m 11.41797,23.953546 h 8.983918 M 0.9787686,20.108084 H 30.83806 M 1.1813556,2.6255825 0.96478369,2.8228223 0.94737241,13.115653 c -0.0116075,10.23466 -0.0116075,10.286773 0.10538409,10.478256 0.2281795,0.371453 0.02352,0.359637 5.4399578,0.359637 H 11.41797 l -0.02352,1.032858 c -0.01741,0.9862 -0.02352,1.038615 -0.181444,1.351896 -0.374496,0.760177 -0.965258,1.171926 -1.8776701,1.305541 -0.4679667,0.06969 -0.5498301,0.09877 -0.6903424,0.255411 -0.310043,0.336611 -0.2865226,0.748361 0.046736,1.038615 l 0.2046588,0.17997 h 7.0133877 7.013694 l 0.204659,-0.17997 c 0.333258,-0.290254 0.356779,-0.702004 0.04673,-1.038615 -0.140511,-0.15664 -0.222375,-0.185726 -0.690342,-0.255411 C 21.57211,27.510529 20.981348,27.098477 20.606853,26.3383 20.448929,26.025019 20.443125,25.972906 20.425409,24.980647 l -0.02352,-1.027101 h 4.93778 c 4.673555,0 4.942667,-0.0058 5.135718,-0.104528 0.111188,-0.05817 0.251395,-0.19724 0.310043,-0.307525 0.09378,-0.185726 0.09958,-0.777446 0.08767,-10.455228 L 30.855685,2.8225194 30.639419,2.6252796 30.417043,2.4280398 H 15.910387 1.4037314 Z"
       style="fill:none;"
       id="path4605" /></g><g
     inkscape:label="Inside"
     id="g906"
     style=""><path
       inkscape:label="Arrow"
       sodipodi:nodetypes="ccccc"
       inkscape:connector-curvature="0"
       d="m 15.814481,18.415329 0.03745,-8.4914071 m -3.781361,6.0086651 3.743915,2.482742 3.637673,-2.467331"
       style="display:inline;fill:none;"
       id="path4598-4" /></g></g></svg>